<?xml version="1.0" encoding="UTF-8"?>
<svg version="1.1" xmlns="http://www.w3.org/2000/svg" width="303" height="302">
<path d="M0 0 C99.99 0 199.98 0 303 0 C303 99.66 303 199.32 303 302 C203.01 302 103.02 302 0 302 C0 202.34 0 102.68 0 0 Z " fill="#1C029B" transform="translate(0,0)"/>
<path d="M0 0 C13.11685757 -0.11570688 26.23359431 -0.2046206 39.35085773 -0.25906086 C45.44136354 -0.28518584 51.53152093 -0.32063759 57.62182617 -0.37719727 C63.4962476 -0.4314124 69.37033334 -0.46139866 75.24498558 -0.47438622 C77.48938472 -0.4836449 79.7337649 -0.50172444 81.97802162 -0.52865028 C85.1150689 -0.56480018 88.25071836 -0.56995113 91.38793945 -0.56762695 C92.32157822 -0.58560333 93.25521698 -0.60357971 94.21714783 -0.62210083 C96.58505184 -0.60304199 98.69738746 -0.55163129 101 0 C103.6489297 3.05307225 104.37918975 5.43087514 104.29296875 9.42578125 C104.28330078 10.22177734 104.27363281 11.01777344 104.26367188 11.83789062 C104.23853516 12.65451172 104.21339844 13.47113281 104.1875 14.3125 C104.16719727 15.56643555 104.16719727 15.56643555 104.14648438 16.84570312 C104.11131217 18.89741498 104.05751048 20.94879275 104 23 C103.01 23 102.02 23 101 23 C101 16.73 101 10.46 101 4 C68 4 35 4 1 4 C1 14.56 1 25.12 1 36 C2.32 36 3.64 36 5 36 C5 26.43 5 16.86 5 7 C35.69 7 66.38 7 98 7 C98 13.93 98 20.86 98 28 C92 32 92 32 90 32 C90 32.66 90 33.32 90 34 C88.73308493 34.67408308 87.46129251 35.33900497 86.1875 36 C85.47980469 36.37125 84.77210938 36.7425 84.04296875 37.125 C82 38 82 38 79 38 C78.76925781 38.61359375 78.53851563 39.2271875 78.30078125 39.859375 C76.62130047 42.62320523 75.18434946 43.11775702 72.1875 44.25 C71.33542969 44.58515625 70.48335938 44.9203125 69.60546875 45.265625 C66.93928914 46.01711191 64.75447334 46.13846545 62 46 C62 46.66 62 47.32 62 48 C55.04931961 50.79080349 48.45491562 51.63419196 41 52 C41 52.66 41 53.32 41 54 C36.55852431 54.85916096 32.37230176 55.11697565 27.8515625 55.09765625 C26.86547501 55.09553383 26.86547501 55.09553383 25.85946655 55.09336853 C23.78126269 55.08781762 21.70317073 55.07527465 19.625 55.0625 C18.20703282 55.05747864 16.78906393 55.05291685 15.37109375 55.04882812 C11.91398579 55.03871962 8.45711662 55.01913533 5 55 C5 50.05 5 45.1 5 40 C3.68 40 2.36 40 1 40 C1 44.62 1 49.24 1 54 C0.01 54 -0.98 54 -2 54 C-2 36.84 -2 19.68 -2 2 C-1.34 2 -0.68 2 0 2 C0 1.34 0 0.68 0 0 Z " fill="#E7E7E8" transform="translate(103,74)"/>
<path d="M0 0 C0.66 0 1.32 0 2 0 C4.37396989 3.56095484 4.25294719 5.09500427 4.25878906 9.31982422 C4.26509338 10.6248288 4.27139771 11.92983337 4.27789307 13.27438354 C4.27431254 14.7011529 4.27021039 16.12792102 4.265625 17.5546875 C4.26697247 19.01815861 4.26891369 20.48162929 4.27142334 21.94509888 C4.2743726 25.01341002 4.27008464 28.08160473 4.26074219 31.14990234 C4.24936783 35.0762914 4.25589544 39.00240641 4.26788712 42.92878532 C4.27512832 45.95201669 4.27280708 48.97518355 4.26763153 51.9984169 C4.26630023 53.4456498 4.2679245 54.89288861 4.27259064 56.34011459 C4.27769049 58.36720411 4.26853453 60.39431422 4.25878906 62.42138672 C4.25719788 63.57371796 4.25560669 64.72604919 4.25396729 65.91329956 C3.99717333 69.03435517 3.43064624 71.22426909 2 74 C-0.27781672 75.13890836 -1.53142398 75.12798609 -4.06140137 75.13371277 C-4.91108994 75.13797775 -5.7607785 75.14224274 -6.63621521 75.14663696 C-7.57030716 75.14618378 -8.50439911 75.14573059 -9.46679688 75.14526367 C-10.44898697 75.14862228 -11.43117706 75.1519809 -12.44313049 75.15544128 C-15.70168306 75.16496889 -18.96018436 75.1668952 -22.21875 75.16796875 C-24.47554547 75.17117968 -26.73234072 75.17454362 -28.98913574 75.17805481 C-33.72371911 75.18405034 -38.4582842 75.18589424 -43.19287109 75.18530273 C-49.27298454 75.185201 -55.35298151 75.19886329 -61.43306732 75.21607494 C-66.09463036 75.22716771 -70.75616498 75.2292228 -75.41773987 75.22869301 C-77.66012474 75.22987686 -79.90251026 75.23432113 -82.1448822 75.24202538 C-85.27440672 75.25177198 -88.40367489 75.24896858 -91.53320312 75.24291992 C-92.93434105 75.25134918 -92.93434105 75.25134918 -94.36378479 75.25994873 C-95.21347336 75.25575424 -96.06316193 75.25155975 -96.93859863 75.24723816 C-98.04914989 75.24805531 -98.04914989 75.24805531 -99.18213654 75.24888897 C-101 75 -101 75 -103 73 C-104.08484191 69.11843861 -104.12119864 65.38688833 -104.11352539 61.3737793 C-104.11367142 60.72931351 -104.11381744 60.08484772 -104.1139679 59.42085266 C-104.11327506 57.30527296 -104.10551231 55.18978294 -104.09765625 53.07421875 C-104.09578983 51.60162911 -104.09436699 50.12903885 -104.09336853 48.65644836 C-104.08956096 44.79147612 -104.07974579 40.9265418 -104.06866455 37.06158447 C-104.0584125 33.11332716 -104.05386279 29.16506368 -104.04882812 25.21679688 C-104.03812187 17.47784735 -104.02106669 9.738929 -104 2 C-103.67 2 -103.34 2 -103 2 C-103 18.83 -103 35.66 -103 53 C-102.01 53 -101.02 53 -100 53 C-100 48.38 -100 43.76 -100 39 C-98.68 39 -97.36 39 -96 39 C-96 43.95 -96 48.9 -96 54 C-84.12 53.67 -72.24 53.34 -60 53 C-60 52.34 -60 51.68 -60 51 C-59.19175781 50.87882812 -58.38351563 50.75765625 -57.55078125 50.6328125 C-55.94783203 50.38144531 -55.94783203 50.38144531 -54.3125 50.125 C-53.25675781 49.96257812 -52.20101562 49.80015625 -51.11328125 49.6328125 C-48.02485832 49.10393469 -48.02485832 49.10393469 -45.35546875 47.9296875 C-43 47 -43 47 -39 47 C-39 46.34 -39 45.68 -39 45 C-38.43152344 44.81824219 -37.86304688 44.63648438 -37.27734375 44.44921875 C-32.39734755 42.86057224 -27.63198525 41.21949293 -23 39 C-22.505 38.01 -22.505 38.01 -22 37 C-20.2578125 35.9296875 -20.2578125 35.9296875 -18.125 34.875 C-17.07699219 34.34519531 -17.07699219 34.34519531 -16.0078125 33.8046875 C-14 33 -14 33 -11 33 C-11 32.34 -11 31.68 -11 31 C-5.58823529 27 -5.58823529 27 -3 27 C-3 20.07 -3 13.14 -3 6 C-33.69 6 -64.38 6 -96 6 C-96 15.57 -96 25.14 -96 35 C-97.32 35 -98.64 35 -100 35 C-100 24.44 -100 13.88 -100 3 C-67 3 -34 3 0 3 C0 9.27 0 15.54 0 22 C0.99 22 1.98 22 3 22 C2.8859425 19.08252927 2.75919732 16.16655505 2.625 13.25 C2.5940625 12.425 2.563125 11.6 2.53125 10.75 C2.49257812 9.95078125 2.45390625 9.1515625 2.4140625 8.328125 C2.3826416 7.5949707 2.3512207 6.86181641 2.31884766 6.10644531 C1.96227477 3.75077082 1.16337117 2.06549409 0 0 Z " fill="#302E56" transform="translate(204,75)"/>
<path d="M0 0 C1.02964371 -0.00554901 2.05928741 -0.01109802 3.12013245 -0.01681519 C6.52579179 -0.02863247 9.93012695 -0.0043155 13.33569336 0.02148438 C15.69933512 0.02319483 18.06297877 0.02313046 20.42662048 0.0213623 C25.38062685 0.02301669 30.33418133 0.0417387 35.28808594 0.07324219 C41.64616777 0.11294139 48.00365799 0.11728561 54.36184025 0.10977936 C59.2422378 0.10671381 64.1225017 0.11881509 69.00286674 0.13591003 C71.34768269 0.14295338 73.69251379 0.14606296 76.03734016 0.1452179 C79.31032971 0.14701037 82.58260268 0.16834498 85.85546875 0.1953125 C86.82957703 0.1923819 87.8036853 0.18945129 88.80731201 0.18643188 C90.14267754 0.20345657 90.14267754 0.20345657 91.50502014 0.2208252 C92.27873994 0.22455391 93.05245974 0.22828262 93.84962559 0.23212433 C96.39491103 0.71643884 97.25738972 1.62349017 98.86303711 3.61523438 C100.3088933 6.50694675 100.01436336 9.03368587 100.04003906 12.26464844 C100.04661026 12.94780624 100.05318146 13.63096405 100.05995178 14.33482361 C100.07969336 16.60016996 100.09135046 18.86544992 100.10131836 21.13085938 C100.10539389 21.90484825 100.10946941 22.67883713 100.11366844 23.47628021 C100.13453488 27.57451613 100.14883293 31.67271853 100.15820312 35.77099609 C100.16925662 39.99900848 100.20364208 44.22649298 100.24337482 48.454319 C100.26955661 51.70919759 100.27789641 54.96395085 100.2814846 58.21892548 C100.28634817 59.77701118 100.29795571 61.33509137 100.3165226 62.89307404 C100.34094422 65.07855141 100.33994422 67.26266935 100.33300781 69.44824219 C100.33887405 70.69019348 100.3447403 71.93214478 100.3507843 73.21173096 C99.76412837 77.3054203 98.52859871 79.47821152 95.86303711 82.61523438 C92.88056792 83.09457396 90.76273013 83.19143421 87.81616211 82.98242188 C87.04496033 82.95173615 86.27375854 82.92105042 85.47918701 82.88943481 C83.02149584 82.78504629 80.56844832 82.63826073 78.11303711 82.49023438 C76.44519776 82.41190775 74.7772257 82.33635432 73.10913086 82.26367188 C69.02486395 82.07964406 64.94424229 81.85757571 60.86303711 81.61523438 C61.31212772 83.09723339 61.77260275 84.57578674 62.23803711 86.05273438 C62.49327148 86.87644531 62.74850586 87.70015625 63.01147461 88.54882812 C63.67185938 90.79321453 63.67185938 90.79321453 65.86303711 91.61523438 C68.06740111 91.84473757 70.27695884 92.02599371 72.48803711 92.17773438 C73.67655273 92.26152344 74.86506836 92.3453125 76.08959961 92.43164062 C77.00483398 92.49222656 77.92006836 92.5528125 78.86303711 92.61523438 C78.86303711 93.27523437 78.86303711 93.93523437 78.86303711 94.61523438 C72.4304831 94.73609656 66.24530656 94.43875301 59.86303711 93.61523438 C58.87303711 88.17023438 58.87303711 88.17023438 57.86303711 82.61523438 C43.01303711 82.12023437 43.01303711 82.12023437 27.86303711 81.61523438 C27.86303711 82.27523437 27.86303711 82.93523437 27.86303711 83.61523438 C29.51303711 83.61523438 31.16303711 83.61523438 32.86303711 83.61523438 C32.86303711 85.59523438 32.86303711 87.57523437 32.86303711 89.61523438 C30.55303711 89.61523438 28.24303711 89.61523438 25.86303711 89.61523438 C25.86303711 86.97523438 25.86303711 84.33523437 25.86303711 81.61523438 C24.82896729 81.67171143 23.79489746 81.72818848 22.72949219 81.78637695 C18.88200729 81.98959706 15.03363994 82.15846039 11.18408203 82.31713867 C9.52023316 82.39049376 7.85676412 82.47308304 6.19384766 82.56518555 C3.79882996 82.69621342 1.40439527 82.79362741 -0.99243164 82.88476562 C-1.73220749 82.93244583 -2.47198334 82.98012604 -3.23417664 83.0292511 C-7.16486255 83.14373655 -8.9310367 82.76917264 -12.11547852 80.38867188 C-14.21177734 77.51259039 -14.74337611 76.44378301 -14.62524414 72.97070312 C-14.60913086 72.12958984 -14.59301758 71.28847656 -14.57641602 70.421875 C-14.53452148 69.55755859 -14.49262695 68.69324219 -14.44946289 67.80273438 C-14.4269043 66.91908203 -14.4043457 66.03542969 -14.38110352 65.125 C-14.32243717 62.95434527 -14.23276268 60.78456747 -14.13696289 58.61523438 C-14.90911133 58.30972656 -15.68125977 58.00421875 -16.47680664 57.68945312 C-21.64056246 55.60423602 -24.77038418 53.69679782 -27.40649414 48.56445312 C-29.4006724 43.24308976 -28.50002323 38.99654312 -26.32446289 33.99023438 C-25.6053708 32.52690711 -24.87691173 31.06812661 -24.13696289 29.61523438 C-23.66258789 28.54273437 -23.18821289 27.47023438 -22.69946289 26.36523438 C-20.91269305 23.22051946 -18.7878997 21.0568867 -16.13696289 18.61523438 C-13.98076823 16.45903971 -14.81546082 11.61317632 -14.71118164 8.69335938 C-13.06765069 -0.11686097 -7.65641975 -0.10446521 0 0 Z M-8.13696289 3.61523438 C-8.13696289 4.27523437 -8.13696289 4.93523437 -8.13696289 5.61523438 C-9.12696289 5.94523437 -10.11696289 6.27523437 -11.13696289 6.61523438 C-11.18337537 15.11692736 -11.21887728 23.6185671 -11.24058723 32.12035561 C-11.25100876 36.0684012 -11.26513806 40.01635988 -11.2878418 43.96435547 C-11.3096285 47.77689845 -11.32154378 51.58935802 -11.32671738 55.40195847 C-11.33040269 56.85396004 -11.33759917 58.30595722 -11.348423 59.75792313 C-11.36301564 61.7972106 -11.36493763 63.8361567 -11.36401367 65.87548828 C-11.3684549 67.03464752 -11.37289612 68.19380676 -11.37747192 69.38809204 C-11.11752458 72.87605706 -10.7312334 77.02096386 -8.13696289 79.61523438 C-5.01745728 79.72658739 -1.91988916 79.77264106 1.20043945 79.77636719 C2.18087723 79.78133209 3.161315 79.786297 4.17146301 79.79141235 C7.43064056 79.80607578 10.68976943 79.81284286 13.94897461 79.81835938 C16.20480349 79.82410732 18.46063235 79.82986509 20.71646118 79.83563232 C25.45282215 79.84615418 30.18916609 79.85198911 34.92553711 79.85546875 C41.00450966 79.86095638 47.08325854 79.8849853 53.16216087 79.9134407 C57.82376774 79.93203369 62.48532039 79.9372709 67.14696121 79.93880463 C69.38852792 79.94183917 71.63009349 79.94989449 73.87162399 79.96298981 C77.00353926 79.97998072 80.13490348 79.97818704 83.2668457 79.97167969 C84.19891342 79.98089447 85.13098114 79.99010925 86.09129333 79.99960327 C87.37005592 79.99124954 87.37005592 79.99124954 88.6746521 79.98272705 C89.41539663 79.98419361 90.15614117 79.98566017 90.9193325 79.98717117 C93.44133295 79.50457481 94.29799545 78.61800944 95.86303711 76.61523438 C96.9698499 73.29479599 97.01018941 70.77796606 97.04003906 67.27954102 C97.0528743 65.97130875 97.06570953 64.66307648 97.07893372 63.31520081 C97.08709979 61.88526793 97.09454377 60.45533077 97.10131836 59.02539062 C97.10539389 58.30498533 97.10946941 57.58458004 97.11366844 56.84234428 C97.13450606 53.03169925 97.14881959 49.22109002 97.15820312 45.41040039 C97.16928307 41.47478536 97.20370692 37.53973333 97.24337482 33.60431767 C97.26950819 30.57684778 97.27789182 27.549513 97.2814846 24.52194023 C97.2863565 23.07105123 97.2979878 21.62016851 97.3165226 20.16938972 C97.34084695 18.13983889 97.33753585 16.11001381 97.33300781 14.08032227 C97.34180717 12.34849449 97.34180717 12.34849449 97.3507843 10.5816803 C97.0454439 7.58988394 97.0454439 7.58988394 95.44151306 5.23954773 C91.46451595 2.73423465 87.74582459 3.08987432 83.13745117 3.16113281 C82.15175644 3.16054871 81.16606171 3.1599646 80.15049744 3.15936279 C76.89286061 3.16214922 73.63613907 3.19326847 70.37866211 3.22460938 C68.11993917 3.23206975 65.86120975 3.23776364 63.60247803 3.24176025 C57.65767546 3.25703244 51.71326383 3.2963284 45.76861572 3.34057617 C39.70248707 3.38149441 33.63629524 3.39976393 27.57006836 3.41992188 C15.66755285 3.46282072 3.76532749 3.53109161 -8.13696289 3.61523438 Z " fill="#161228" transform="translate(111.136962890625,70.384765625)"/>
<path d="M0 0 C0.92998391 3.94874121 1.15762789 7.0822637 0 11 C-3.71825342 14.39673081 -7.76627304 16.7233482 -12.20849609 19.05712891 C-14.60051422 20.3160515 -16.91642908 21.69902239 -19.25 23.0625 C-22.72053872 25 -22.72053872 25 -25 25 C-25.495 26.485 -25.495 26.485 -26 28 C-29.87862084 29.39044898 -32.86462003 30 -37 30 C-37 30.66 -37 31.32 -37 32 C-43.83621433 34.80122602 -49.81841372 35.40877623 -57.16015625 35.29296875 C-58.19063583 35.28872391 -59.22111542 35.28447906 -60.28282166 35.28010559 C-63.54299115 35.26344216 -66.80252039 35.22581301 -70.0625 35.1875 C-72.2857983 35.17243722 -74.50910639 35.15875162 -76.73242188 35.14648438 C-82.15516281 35.11357924 -87.57753564 35.06350457 -93 35 C-93 33.68 -93 32.36 -93 31 C-92.22922119 30.98018066 -91.45844238 30.96036133 -90.66430664 30.93994141 C-87.13006151 30.84395546 -83.59634883 30.73457671 -80.0625 30.625 C-78.24395508 30.57859375 -78.24395508 30.57859375 -76.38867188 30.53125 C-69.65926491 30.3124075 -63.51230935 29.72818565 -57 28 C-58.98 27.67 -60.96 27.34 -63 27 C-63 26.67 -63 26.34 -63 26 C-61.02 26 -59.04 26 -57 26 C-57 25.34 -57 24.68 -57 24 C-56.19175781 23.87882812 -55.38351563 23.75765625 -54.55078125 23.6328125 C-53.48214844 23.46523437 -52.41351563 23.29765625 -51.3125 23.125 C-50.25675781 22.96257812 -49.20101562 22.80015625 -48.11328125 22.6328125 C-45.02485832 22.10393469 -45.02485832 22.10393469 -42.35546875 20.9296875 C-40 20 -40 20 -36 20 C-36 19.34 -36 18.68 -36 18 C-35.43152344 17.81824219 -34.86304688 17.63648437 -34.27734375 17.44921875 C-29.39734755 15.86057224 -24.63198525 14.21949293 -20 12 C-19.67 11.34 -19.34 10.68 -19 10 C-17.2578125 8.9296875 -17.2578125 8.9296875 -15.125 7.875 C-14.07699219 7.34519531 -14.07699219 7.34519531 -13.0078125 6.8046875 C-11 6 -11 6 -8 6 C-8 5.34 -8 4.68 -8 4 C-2.58823529 0 -2.58823529 0 0 0 Z " fill="#3B3BE2" transform="translate(201,102)"/>
<path d="M0 0 C0.99 0 1.98 0 3 0 C3.07415168 4.78715623 3.12860204 9.57397827 3.16479492 14.36157227 C3.17988243 15.99021223 3.20035506 17.61881156 3.22631836 19.24731445 C3.26270449 21.58815535 3.2797262 23.92845919 3.29296875 26.26953125 C3.30845261 26.99775589 3.32393646 27.72598053 3.33988953 28.47627258 C3.34157586 33.54049128 3.34157586 33.54049128 1.74090862 35.69380665 C-0.41310063 37.30994694 -1.52169708 37.37072659 -4.19511414 37.36076355 C-5.47604446 37.36694954 -5.47604446 37.36694954 -6.78285217 37.3732605 C-7.71649094 37.36247467 -8.6501297 37.35168884 -9.61206055 37.34057617 C-10.59760925 37.34101425 -11.58315796 37.34145233 -12.59857178 37.34190369 C-15.86148782 37.33981093 -19.12389229 37.31645653 -22.38671875 37.29296875 C-24.64687316 37.28737454 -26.90703121 37.28310362 -29.16719055 37.28010559 C-35.12014789 37.2686431 -41.07288615 37.23916366 -47.02575684 37.20599365 C-53.09852128 37.17532312 -59.17132108 37.1616067 -65.24414062 37.14648438 C-77.16285675 37.11429545 -89.08141017 37.06308201 -101 37 C-101 36.34 -101 35.68 -101 35 C-99.05673828 34.94392578 -99.05673828 34.94392578 -97.07421875 34.88671875 C-87.92625384 34.5703751 -78.86915177 34.06094653 -69.8125 32.6875 C-69.07281982 32.58203857 -68.33313965 32.47657715 -67.57104492 32.36791992 C-63.55144919 31.71008592 -60.18168782 30.67607544 -56.48364258 28.96118164 C-50.55787982 26.55653069 -45.19500996 26.4865884 -38.8671875 26.609375 C-37.74933868 26.61503479 -36.63148987 26.62069458 -35.47976685 26.62652588 C-31.94439039 26.6487378 -28.41006496 26.69890689 -24.875 26.75 C-22.46355641 26.77008457 -20.05209677 26.78833189 -17.640625 26.8046875 C-11.75969583 26.84513406 -5.8810104 26.92345757 0 27 C0 18.09 0 9.18 0 0 Z " fill="#D2D2D3" transform="translate(204,113)"/>
<path d="M0 0 C3.29159316 -0.05790353 6.58305603 -0.09356261 9.875 -0.125 C10.81214844 -0.14175781 11.74929687 -0.15851563 12.71484375 -0.17578125 C13.61074219 -0.18222656 14.50664062 -0.18867188 15.4296875 -0.1953125 C16.25710449 -0.20578613 17.08452148 -0.21625977 17.93701172 -0.22705078 C20 0 20 0 22 2 C22.1953125 4.3828125 22.1953125 4.3828125 22.125 7.125 C22.10695312 8.03507813 22.08890625 8.94515625 22.0703125 9.8828125 C22.04710937 10.58148438 22.02390625 11.28015625 22 12 C22.99 12 23.98 12 25 12 C26.50156874 15.00313748 26.09281204 17.79067522 26.0625 21.125 C26.05347656 22.40632813 26.04445312 23.68765625 26.03515625 25.0078125 C26.02355469 25.99523437 26.01195312 26.98265625 26 28 C23.39048764 29.30475618 21.47298715 29.11301572 18.5546875 29.09765625 C16.94013672 29.09282227 16.94013672 29.09282227 15.29296875 29.08789062 C14.16503906 29.07951172 13.03710938 29.07113281 11.875 29.0625 C10.73933594 29.05798828 9.60367188 29.05347656 8.43359375 29.04882812 C5.62234362 29.03701615 2.8111977 29.02054507 0 29 C-0.08745946 25.6043303 -0.14054444 22.20895227 -0.1875 18.8125 C-0.21263672 17.85279297 -0.23777344 16.89308594 -0.26367188 15.90429688 C-0.35493909 7.11222193 -0.35493909 7.11222193 3 3 C2.01 3 1.02 3 0 3 C0 2.01 0 1.02 0 0 Z " fill="#DCDBE4" transform="translate(120,186)"/>
<path d="M0 0 C13.11685757 -0.11570688 26.23359431 -0.2046206 39.35085773 -0.25906086 C45.44136354 -0.28518584 51.53152093 -0.32063759 57.62182617 -0.37719727 C63.4962476 -0.4314124 69.37033334 -0.46139866 75.24498558 -0.47438622 C77.48938472 -0.4836449 79.7337649 -0.50172444 81.97802162 -0.52865028 C85.1150689 -0.56480018 88.25071836 -0.56995113 91.38793945 -0.56762695 C92.32157822 -0.58560333 93.25521698 -0.60357971 94.21714783 -0.62210083 C96.58505184 -0.60304199 98.69738746 -0.55163129 101 0 C103.6489297 3.05307225 104.37918975 5.43087514 104.29296875 9.42578125 C104.28330078 10.22177734 104.27363281 11.01777344 104.26367188 11.83789062 C104.23853516 12.65451172 104.21339844 13.47113281 104.1875 14.3125 C104.16719727 15.56643555 104.16719727 15.56643555 104.14648438 16.84570312 C104.11131217 18.89741498 104.05751048 20.94879275 104 23 C103.01 23 102.02 23 101 23 C101 16.73 101 10.46 101 4 C68 4 35 4 1 4 C1 14.56 1 25.12 1 36 C1.99 36 2.98 36 4 36 C4 37.32 4 38.64 4 40 C3.01 40 2.02 40 1 40 C1 44.62 1 49.24 1 54 C0.01 54 -0.98 54 -2 54 C-2 36.84 -2 19.68 -2 2 C-1.34 2 -0.68 2 0 2 C0 1.34 0 0.68 0 0 Z " fill="#9A9A9A" transform="translate(103,74)"/>
<path d="M0 0 C2.375 -0.125 2.375 -0.125 5 0 C7.39763185 2.39763185 7.34280586 3.33273498 7.625 6.625 C7.69976562 7.44226563 7.77453125 8.25953125 7.8515625 9.1015625 C7.92503906 10.04128906 7.92503906 10.04128906 8 11 C8.66 11 9.32 11 10 11 C10.12117188 11.92683594 10.24234375 12.85367188 10.3671875 13.80859375 C10.53476563 15.00613281 10.70234375 16.20367187 10.875 17.4375 C11.03742188 18.63246094 11.19984375 19.82742187 11.3671875 21.05859375 C11.57601562 22.02925781 11.78484375 22.99992187 12 24 C12.66 24.33 13.32 24.66 14 25 C14.04898438 24.26136719 14.09796875 23.52273437 14.1484375 22.76171875 C15.5733882 3.4266118 15.5733882 3.4266118 19 0 C21.625 -0.125 21.625 -0.125 24 0 C23.71583399 2.37611155 23.42291099 4.75060496 23.125 7.125 C23.04636719 7.79015625 22.96773437 8.4553125 22.88671875 9.140625 C22.35426237 13.31835965 21.39360276 17.03694216 20 21 C19.59280391 22.78462483 19.21527288 24.57641478 18.875 26.375 C18.58625 27.90125 18.2975 29.4275 18 31 C14.7 31 11.4 31 8 31 C5.525 21.595 5.525 21.595 3 12 C1.35 17.94 -0.3 23.88 -2 30 C-5.3 30 -8.6 30 -12 30 C-12.26554687 28.85402344 -12.53109375 27.70804688 -12.8046875 26.52734375 C-13.16136742 24.99737464 -13.51814337 23.46742791 -13.875 21.9375 C-14.13603516 20.80924805 -14.13603516 20.80924805 -14.40234375 19.65820312 C-15.22973248 16.118818 -16.09246497 12.61060739 -17.125 9.125 C-17.93567513 6.22973169 -18.18070593 3.98164781 -18 1 C-16.33388095 0.957279 -14.66617115 0.95936168 -13 1 C-11.50435836 2.49564164 -11.57515991 4.00467803 -11.24609375 6.078125 C-11.11396484 6.90957031 -10.98183594 7.74101562 -10.84570312 8.59765625 C-10.71099609 9.47292969 -10.57628906 10.34820312 -10.4375 11.25 C-10.29892578 12.10980469 -10.16035156 12.96960938 -10.01757812 13.85546875 C-9.37957557 17.93491363 -8.80308473 21.85621771 -9 26 C-8.01 26 -7.02 26 -6 26 C-5.67 21.71 -5.34 17.42 -5 13 C-4.34 13 -3.68 13 -3 13 C-2.87625 11.96875 -2.7525 10.9375 -2.625 9.875 C-2.06110186 6.37883154 -1.21317941 3.31602373 0 0 Z " fill="#CCC8DD" transform="translate(57,185)"/>
<path d="M0 0 C-0.25 1.875 -0.25 1.875 -1 4 C-2.32467746 4.6837045 -3.65863633 5.34964186 -5 6 C-6.03924678 7.77944723 -6.03924678 7.77944723 -7 10 C-7.41378906 10.88816406 -7.82757813 11.77632812 -8.25390625 12.69140625 C-8.90166016 14.11259766 -8.90166016 14.11259766 -9.5625 15.5625 C-9.99691406 16.51253906 -10.43132812 17.46257812 -10.87890625 18.44140625 C-13.56095815 24.56246546 -13.97779173 29.49175164 -11.5625 35.6875 C-8.80254502 40.06328316 -4.54343316 41.79509861 0 44 C0 48.29 0 52.58 0 57 C-5.71695055 57.59551568 -8.69983599 56.40162446 -13.49609375 53.2890625 C-13.99238281 52.86367187 -14.48867187 52.43828125 -15 52 C-15 51.34 -15 50.68 -15 50 C-15.5775 49.773125 -16.155 49.54625 -16.75 49.3125 C-20.52439607 47.11076896 -22.59926112 44.46937588 -23.75 40.25 C-23.8325 39.1775 -23.915 38.105 -24 37 C-24.06316406 36.31808594 -24.12632813 35.63617188 -24.19140625 34.93359375 C-24.52312495 28.78074692 -22.84003282 24.39492179 -20 19 C-19.67 18.34 -19.34 17.68 -19 17 C-18.34 17 -17.68 17 -17 17 C-16.93683594 16.44828125 -16.87367187 15.8965625 -16.80859375 15.328125 C-15.65041122 11.99345453 -13.56721585 10.20799949 -11.0625 7.75 C-10.16660156 6.85796875 -9.27070312 5.9659375 -8.34765625 5.046875 C-6 3 -6 3 -4 3 C-4 2.34 -4 1.68 -4 1 C-2 0 -2 0 0 0 Z " fill="#3C3CE4" transform="translate(97,85)"/>
<path d="M0 0 C0.66 0 1.32 0 2 0 C2 2.64 2 5.28 2 8 C4.31 8 6.62 8 9 8 C9 6.02 9 4.04 9 2 C7.35 2 5.7 2 4 2 C4 1.34 4 0.68 4 0 C13.9 0 23.8 0 34 0 C36.25 7.875 36.25 7.875 36 12 C38.97 12 41.94 12 45 12 C44.67 12.66 44.34 13.32 44 14 C23.87 14 3.74 14 -17 14 C-17 12.68 -17 11.36 -17 10 C-16.10796875 9.93941406 -15.2159375 9.87882813 -14.296875 9.81640625 C-12.54117188 9.69072266 -12.54117188 9.69072266 -10.75 9.5625 C-9.58984375 9.48128906 -8.4296875 9.40007812 -7.234375 9.31640625 C-4.69022624 9.06752213 -2.44046752 8.71885058 0 8 C0 5.36 0 2.72 0 0 Z " fill="#292738" transform="translate(135,152)"/>
<path d="M0 0 C1.91015625 0.23046875 1.91015625 0.23046875 3.91015625 2.23046875 C3.91015625 3.55046875 3.91015625 4.87046875 3.91015625 6.23046875 C4.57015625 6.23046875 5.23015625 6.23046875 5.91015625 6.23046875 C6.72620624 8.14562665 7.53786257 10.06265709 8.34765625 11.98046875 C8.80011719 13.0478125 9.25257813 14.11515625 9.71875 15.21484375 C10.64995178 17.57185285 11.38856345 19.7603971 11.91015625 22.23046875 C12.57015625 22.23046875 13.23015625 22.23046875 13.91015625 22.23046875 C13.91015625 15.30046875 13.91015625 8.37046875 13.91015625 1.23046875 C15.56015625 1.23046875 17.21015625 1.23046875 18.91015625 1.23046875 C18.91015625 11.13046875 18.91015625 21.03046875 18.91015625 31.23046875 C15.94015625 31.23046875 12.97015625 31.23046875 9.91015625 31.23046875 C9.69101563 30.6478125 9.471875 30.06515625 9.24609375 29.46484375 C6.54707554 22.48689422 3.31768771 15.89064388 -0.08984375 9.23046875 C-0.41984375 16.82046875 -0.74984375 24.41046875 -1.08984375 32.23046875 C-3.06984375 32.23046875 -5.04984375 32.23046875 -7.08984375 32.23046875 C-7.11449879 27.83390702 -7.13268217 23.43738155 -7.14477539 19.04077148 C-7.14981496 17.54401957 -7.15664662 16.04727259 -7.1652832 14.55053711 C-7.17736534 12.40347068 -7.18307566 10.25646913 -7.1875 8.109375 C-7.19273682 6.81588135 -7.19797363 5.5223877 -7.20336914 4.18969727 C-7.00227334 -1.05219984 -4.71481893 0.09412524 0 0 Z " fill="#C3BEDA" transform="translate(206.08984375,184.76953125)"/>
<path d="M0 0 C0.91644287 0.00523682 1.83288574 0.01047363 2.77709961 0.01586914 C3.76645508 0.0190918 4.75581055 0.02231445 5.77514648 0.02563477 C6.81606445 0.03401367 7.85698242 0.04239258 8.92944336 0.05102539 C10.49662109 0.05779297 10.49662109 0.05779297 12.09545898 0.06469727 C14.68600996 0.07652627 17.27644895 0.0930085 19.86694336 0.11352539 C20.24913103 1.76967196 20.58089438 3.43809563 20.86694336 5.11352539 C19.86694336 6.11352539 19.86694336 6.11352539 16.26928711 6.21118164 C14.78097469 6.20450759 13.29267904 6.19254722 11.80444336 6.17602539 C11.04583008 6.17151367 10.2872168 6.16700195 9.50561523 6.16235352 C7.62602465 6.15053219 5.74647437 6.13259617 3.86694336 6.11352539 C3.86694336 9.41352539 3.86694336 12.71352539 3.86694336 16.11352539 C4.85694336 15.45352539 5.84694336 14.79352539 6.86694336 14.11352539 C10.22241211 13.91821289 10.22241211 13.91821289 14.05444336 13.98852539 C15.32674805 14.00657227 16.59905273 14.02461914 17.90991211 14.04321289 C19.37364258 14.07801758 19.37364258 14.07801758 20.86694336 14.11352539 C20.86694336 15.76352539 20.86694336 17.41352539 20.86694336 19.11352539 C15.25694336 19.11352539 9.64694336 19.11352539 3.86694336 19.11352539 C3.86694336 21.75352539 3.86694336 24.39352539 3.86694336 27.11352539 C9.47694336 27.11352539 15.08694336 27.11352539 20.86694336 27.11352539 C20.53694336 28.76352539 20.20694336 30.41352539 19.86694336 32.11352539 C12.60694336 32.11352539 5.34694336 32.11352539 -2.13305664 32.11352539 C-2.13305664 23.78019206 -2.13305664 15.44685872 -2.13305664 7.11352539 C-2.31868164 6.08227539 -2.50430664 5.05102539 -2.69555664 3.98852539 C-2.83993164 3.03977539 -2.98430664 2.09102539 -3.13305664 1.11352539 C-2.13305664 0.11352539 -2.13305664 0.11352539 0 0 Z " fill="#9B92CB" transform="translate(90.133056640625,183.886474609375)"/>
<path d="M0 0 C33 0 66 0 100 0 C100 6.6 100 13.2 100 20 C99.34 20.66 98.68 21.32 98 22 C98 15.73 98 9.46 98 3 C66.98 3 35.96 3 4 3 C4 12.57 4 22.14 4 32 C2.68 32 1.36 32 0 32 C0 21.44 0 10.88 0 0 Z " fill="#292929" transform="translate(104,78)"/>
<path d="M0 0 C0.33 0 0.66 0 1 0 C1 16.83 1 33.66 1 51 C1.99 51 2.98 51 4 51 C4 54.96 4 58.92 4 63 C20.17 63 36.34 63 53 63 C52 65 52 65 50.23901367 65.79443359 C44.96569265 67.49653462 39.78932254 68.7872009 34.3125 69.625 C33.51739014 69.74979736 32.72228027 69.87459473 31.90307617 70.00317383 C21.99204753 71.4455611 12.00081494 71.74276716 2 72 C0.31531527 67.593055 -0.24508931 63.96830878 -0.22705078 59.26025391 C-0.22748886 58.29333618 -0.22748886 58.29333618 -0.22793579 57.30688477 C-0.22655315 55.19663577 -0.21104311 53.08674908 -0.1953125 50.9765625 C-0.19157856 49.50540357 -0.18873339 48.03424215 -0.18673706 46.56307983 C-0.17913056 42.70628902 -0.159508 38.84965079 -0.1373291 34.99291992 C-0.11680613 31.05129052 -0.10772159 27.10963627 -0.09765625 23.16796875 C-0.07625903 15.44524323 -0.04215949 7.72264306 0 0 Z " fill="#3E3092" transform="translate(100,77)"/>
<path d="M0 0 C0.33 0 0.66 0 1 0 C1 13.53 1 27.06 1 41 C-9.20349604 36.91860158 -9.20349604 36.91860158 -12.26953125 30.94921875 C-14.26370951 25.62785538 -13.36306034 21.38130874 -11.1875 16.375 C-10.46840791 14.91167273 -9.73994884 13.45289224 -9 12 C-8.2884375 10.39125 -8.2884375 10.39125 -7.5625 8.75 C-5.77573016 5.60528509 -3.65093681 3.44165233 -1 1 C-0.67 0.67 -0.34 0.34 0 0 Z " fill="#1C049C" transform="translate(96,88)"/>
<path d="M0 0 C1.65 0 3.3 0 5 0 C5 4.95 5 9.9 5 15 C5.99 14.01 6.98 13.02 8 12 C8.66 12 9.32 12 10 12 C10.33 11.01 10.66 10.02 11 9 C11.66 9 12.32 9 13 9 C13.33 8.01 13.66 7.02 14 6 C14.66 6 15.32 6 16 6 C16 5.34 16 4.68 16 4 C17.625 1.875 17.625 1.875 20 0 C23.25 -0.25 23.25 -0.25 26 0 C26 0.99 26 1.98 26 3 C25.360625 3.103125 24.72125 3.20625 24.0625 3.3125 C23.381875 3.539375 22.70125 3.76625 22 4 C21.67 4.99 21.34 5.98 21 7 C19.02043058 8.69088222 17.02054804 10.35830472 15 12 C14.67 12.66 14.34 13.32 14 14 C14.62648437 13.98839844 15.25296875 13.97679687 15.8984375 13.96484375 C16.71570313 13.95582031 17.53296875 13.94679687 18.375 13.9375 C19.18710937 13.92589844 19.99921875 13.91429687 20.8359375 13.90234375 C23 14 23 14 25 15 C25 19.95 25 24.9 25 30 C23.68 30 22.36 30 21 30 C21 26.04 21 22.08 21 18 C15.72 18 10.44 18 5 18 C5.020625 19.959375 5.04125 21.91875 5.0625 23.9375 C5.08377188 25.95832876 5.07244053 27.98035801 5 30 C4 31 4 31 1.4375 31.0625 C0.633125 31.041875 -0.17125 31.02125 -1 31 C-1.02465622 26.74585377 -1.04283899 22.49174502 -1.05493164 18.23754883 C-1.05997101 16.78929927 -1.06680253 15.34105483 -1.07543945 13.89282227 C-1.08752247 11.81525412 -1.09323211 9.73775303 -1.09765625 7.66015625 C-1.10289307 6.40855713 -1.10812988 5.15695801 -1.11352539 3.86743164 C-1 1 -1 1 0 0 Z " fill="#B6AFD5" transform="translate(237,185)"/>
<path d="M0 0 C0 6.6 0 13.2 0 20 C-11.22 20 -22.44 20 -34 20 C-33.01 19.67 -32.02 19.34 -31 19 C-31 18.34 -31 17.68 -31 17 C-30.01 17 -29.02 17 -28 17 C-28 16.34 -28 15.68 -28 15 C-27.40832031 14.74605469 -26.81664062 14.49210938 -26.20703125 14.23046875 C-22.72069356 12.71194972 -19.37817646 11.23019437 -16.125 9.25 C-14 8 -14 8 -11 8 C-11 7.34 -11 6.68 -11 6 C-9.1015625 4.4921875 -9.1015625 4.4921875 -6.625 2.875 C-5.81289062 2.33617188 -5.00078125 1.79734375 -4.1640625 1.2421875 C-2 0 -2 0 0 0 Z " fill="#D9D8E0" transform="translate(201,117)"/>
<path d="M0 0 C0.33 0 0.66 0 1 0 C1 12.87 1 25.74 1 39 C-32 39 -65 39 -99 39 C-99 25.5 -99 25.5 -98.5 19.75 C-98.4071875 18.65171875 -98.314375 17.5534375 -98.21875 16.421875 C-98.1465625 15.62265625 -98.074375 14.8234375 -98 14 C-97.67 14 -97.34 14 -97 14 C-96.82814802 15.95788511 -96.66284429 17.91634511 -96.5 19.875 C-96.4071875 20.96554688 -96.314375 22.05609375 -96.21875 23.1796875 C-96.04473611 26.21871588 -95.97759652 29.19798921 -95.98632812 32.23876953 C-95.988302 33.13242218 -95.99027588 34.02607483 -95.99230957 34.94680786 C-95.99484741 35.62436127 -95.99738525 36.30191467 -96 37 C-95.33856491 36.98747192 -94.67712982 36.97494385 -93.99565125 36.96203613 C-85.55968992 36.80303967 -77.12363763 36.64932678 -68.6875 36.5 C-68.01670284 36.48812275 -67.34590569 36.4762455 -66.65478134 36.46400833 C-45.10181473 36.08428409 -23.55653183 35.84973999 -2 36 C-1.96241577 34.41747437 -1.96241577 34.41747437 -1.92407227 32.80297852 C-1.83015891 28.90229372 -1.72989966 25.00179375 -1.62768555 21.10131836 C-1.58427561 19.41060701 -1.54260511 17.71985009 -1.50268555 16.02905273 C-1.44512906 13.60386394 -1.38139351 11.17890585 -1.31640625 8.75390625 C-1.29969376 7.99348526 -1.28298126 7.23306427 -1.26576233 6.44960022 C-1.11387171 1.11387171 -1.11387171 1.11387171 0 0 Z " fill="#06060A" transform="translate(203,101)"/>
<path d="M0 0 C1.65322266 0.01740234 1.65322266 0.01740234 3.33984375 0.03515625 C4.99693359 0.04869141 4.99693359 0.04869141 6.6875 0.0625 C7.54214844 0.07410156 8.39679688 0.08570313 9.27734375 0.09765625 C9.30423591 1.57672517 9.32368996 3.05593108 9.33984375 4.53515625 C9.35144531 5.35886719 9.36304688 6.18257812 9.375 7.03125 C9.27734375 9.09765625 9.27734375 9.09765625 8.27734375 10.09765625 C6.59550427 10.33052633 4.90610215 10.51029791 3.21484375 10.66015625 C2.29574219 10.74394531 1.37664062 10.82773438 0.4296875 10.9140625 C-0.28058594 10.97464844 -0.99085937 11.03523437 -1.72265625 11.09765625 C-1.72265625 11.75765625 -1.72265625 12.41765625 -1.72265625 13.09765625 C-0.72363281 13.08605469 0.27539062 13.07445312 1.3046875 13.0625 C2.59503906 13.05347656 3.88539063 13.04445312 5.21484375 13.03515625 C6.50261719 13.02355469 7.79039062 13.01195312 9.1171875 13 C12.27734375 13.09765625 12.27734375 13.09765625 13.27734375 14.09765625 C13.41015625 15.91015625 13.41015625 15.91015625 13.40234375 18.09765625 C13.40621094 19.18046875 13.40621094 19.18046875 13.41015625 20.28515625 C13.27734375 22.09765625 13.27734375 22.09765625 12.27734375 23.09765625 C9.76598271 23.19740657 7.2883096 23.23647808 4.77734375 23.22265625 C4.07480469 23.22652344 3.37226563 23.23039062 2.6484375 23.234375 C-2.59604247 23.22427003 -2.59604247 23.22427003 -3.72265625 22.09765625 C-3.82165148 20.54810066 -3.85345149 18.99411952 -3.85546875 17.44140625 C-3.85675781 16.50167969 -3.85804687 15.56195313 -3.859375 14.59375 C-3.85550781 13.60503906 -3.85164063 12.61632812 -3.84765625 11.59765625 C-3.85152344 10.60894531 -3.85539062 9.62023437 -3.859375 8.6015625 C-3.85808594 7.66183594 -3.85679688 6.72210938 -3.85546875 5.75390625 C-3.85434082 4.88572266 -3.85321289 4.01753906 -3.85205078 3.12304688 C-3.65048244 -0.03206818 -3.19577688 0.11462614 0 0 Z " fill="#7A6BBE" transform="translate(127.72265625,188.90234375)"/>
<path d="M0 0 C0.66 0.33 1.32 0.66 2 1 C1.99555878 1.85111359 1.99111755 2.70222717 1.98654175 3.57913208 C1.94641594 11.6122654 1.91599064 19.6453649 1.89637566 27.67857552 C1.8859523 31.80822155 1.87181962 35.93778456 1.84912109 40.06738281 C1.82734097 44.0549895 1.81542048 48.04251647 1.81024551 52.03017807 C1.80655903 53.54916513 1.79936025 55.06814799 1.78853989 56.58710098 C1.77395607 58.71978325 1.77202491 60.85213892 1.77294922 62.98486328 C1.768508 64.1973172 1.76406677 65.40977112 1.75949097 66.65896606 C2.00816931 70.1134841 2.65179012 72.81513705 4 76 C6.9996617 77.49983085 10.11946961 77.23902055 13.4140625 77.31640625 C14.14370209 77.33718735 14.87334167 77.35796844 15.62509155 77.37937927 C17.95829763 77.44481917 20.29161721 77.50373368 22.625 77.5625 C24.20574095 77.60569053 25.78647039 77.64930499 27.3671875 77.69335938 C31.24467504 77.80049481 35.12227685 77.90177782 39 78 C39 80.97 39 83.94 39 87 C38.67 87 38.34 87 38 87 C38 84.36 38 81.72 38 79 C36.96593018 79.05647705 35.93186035 79.1129541 34.86645508 79.17114258 C31.01897018 79.37436268 27.17060283 79.54322601 23.32104492 79.7019043 C21.65719605 79.77525939 19.99372701 79.85784867 18.33081055 79.94995117 C15.93579285 80.08097905 13.54135816 80.17839303 11.14453125 80.26953125 C10.4047554 80.31721146 9.66497955 80.36489166 8.90278625 80.41401672 C5.14354346 80.52350871 3.30794236 80.23780699 0.30117798 77.91584778 C-2.56419375 74.28510393 -2.61783046 72.45507882 -2.59936523 67.87060547 C-2.60330795 67.17243713 -2.60725067 66.4742688 -2.61131287 65.75494385 C-2.61799993 63.45828371 -2.58891844 61.16363324 -2.55859375 58.8671875 C-2.5543415 57.26726669 -2.55201483 55.66733971 -2.55152893 54.06741333 C-2.54537157 50.71994934 -2.5227082 47.37315663 -2.48706055 44.02587891 C-2.44171523 39.73386839 -2.42703031 35.44246408 -2.42332363 31.15023613 C-2.41889721 27.84911109 -2.40359845 24.5481134 -2.3844471 21.24704361 C-2.37556576 19.66419649 -2.36883533 18.0813358 -2.36428642 16.49847031 C-2.35525113 14.28894908 -2.33286936 12.07997785 -2.30639648 9.87060547 C-2.29575668 8.61327606 -2.28511688 7.35594666 -2.27415466 6.06051636 C-2 3 -2 3 0 0 Z " fill="#0B0723" transform="translate(99,73)"/>
<path d="M0 0 C1.98 0 3.96 0 6 0 C6 8.58 6 17.16 6 26 C9.63 26 13.26 26 17 26 C17 24.68 17 23.36 17 22 C18.65 22 20.3 22 22 22 C22 24.97 22 27.94 22 31 C14.74 31 7.48 31 0 31 C0 20.77 0 10.54 0 0 Z " fill="#B4AED4" transform="translate(155,185)"/>
<path d="M0 0 C12.85612292 -0.09256824 25.71216692 -0.16369811 38.56855488 -0.20724869 C44.53792888 -0.22814791 50.50707534 -0.25650848 56.47631836 -0.30175781 C62.23401827 -0.34513178 67.99149895 -0.3691195 73.74934959 -0.37950897 C75.94907268 -0.38691551 78.1487834 -0.40137824 80.34841347 -0.42292023 C83.42305312 -0.45184148 86.49678002 -0.45596068 89.5715332 -0.45410156 C90.48647049 -0.46848267 91.40140778 -0.48286377 92.34407043 -0.49768066 C98.50147828 -0.45723573 98.50147828 -0.45723573 101.06799316 1.89672852 C102.10249698 4.23130622 102.34752949 5.78195705 102.29296875 8.328125 C102.28330078 9.12734375 102.27363281 9.9265625 102.26367188 10.75 C102.23853516 11.575 102.21339844 12.4 102.1875 13.25 C102.16719727 14.51070312 102.16719727 14.51070312 102.14648438 15.796875 C102.11123464 17.86485938 102.0574302 19.93251271 102 22 C101.01 22 100.02 22 99 22 C99 15.4 99 8.8 99 2 C66 2 33 2 -1 2 C-0.67 1.34 -0.34 0.68 0 0 Z " fill="#E8E8E8" transform="translate(105,75)"/>
<path d="M0 0 C3.60377376 -0.25142608 5.50306771 -0.30762475 8.625 1.625 C9.40875 2.07875 10.1925 2.5325 11 3 C13.30287793 2.30859649 13.30287793 2.30859649 15 1 C15 1.99 15 2.98 15 4 C15.66 4 16.32 4 17 4 C17 3.01 17 2.02 17 1 C18.65 1 20.3 1 22 1 C21.01 1.495 21.01 1.495 20 2 C20 2.66 20 3.32 20 4 C20.99 4 21.98 4 23 4 C23.33 3.01 23.66 2.02 24 1 C24.99 1 25.98 1 27 1 C27.66 1.99 28.32 2.98 29 4 C29.33 3.01 29.66 2.02 30 1 C30.66 1 31.32 1 32 1 C32 3.97 32 6.94 32 10 C21.44 10 10.88 10 0 10 C0 6.7 0 3.4 0 0 Z " fill="#4C39B3" transform="translate(163,225)"/>
<path d="M0 0 C2.375 -0.125 2.375 -0.125 5 0 C7.39763185 2.39763185 7.34280586 3.33273498 7.625 6.625 C7.69976562 7.44226563 7.77453125 8.25953125 7.8515625 9.1015625 C7.92503906 10.04128906 7.92503906 10.04128906 8 11 C8.66 11 9.32 11 10 11 C10.12117188 11.92683594 10.24234375 12.85367188 10.3671875 13.80859375 C10.53476563 15.00613281 10.70234375 16.20367187 10.875 17.4375 C11.03742188 18.63246094 11.19984375 19.82742187 11.3671875 21.05859375 C11.57601562 22.02925781 11.78484375 22.99992187 12 24 C12.66 24.33 13.32 24.66 14 25 C14.04898438 24.26136719 14.09796875 23.52273437 14.1484375 22.76171875 C15.5733882 3.4266118 15.5733882 3.4266118 19 0 C21.625 -0.125 21.625 -0.125 24 0 C23.71583399 2.37611155 23.42291099 4.75060496 23.125 7.125 C23.00705078 8.12273437 23.00705078 8.12273437 22.88671875 9.140625 C22.35426237 13.31835965 21.39360276 17.03694216 20 21 C19.59280391 22.78462483 19.21527288 24.57641478 18.875 26.375 C18.58625 27.90125 18.2975 29.4275 18 31 C14.7 31 11.4 31 8 31 C8 29.68 8 28.36 8 27 C8.66 27 9.32 27 10 27 C9.67 22.71 9.34 18.42 9 14 C8.34 14 7.68 14 7 14 C6.67 10.37 6.34 6.74 6 3 C1.372678 2.627322 1.372678 2.627322 -1 4 C-0.67 2.68 -0.34 1.36 0 0 Z " fill="#A79FCF" transform="translate(57,185)"/>
<path d="M0 0 C9.24 0 18.48 0 28 0 C28 0.33 28 0.66 28 1 C26.35 1 24.7 1 23 1 C23 2.98 23 4.96 23 7 C25.31 7 27.62 7 30 7 C30 7.99 30 8.98 30 10 C19.44 10 8.88 10 -2 10 C-2 9.01 -2 8.02 -2 7 C-0.02 7 1.96 7 4 7 C4 5.02 4 3.04 4 1 C2.68 0.67 1.36 0.34 0 0 Z " fill="#D7D6DC" transform="translate(140,153)"/>
<path d="M0 0 C32.34 0 64.68 0 98 0 C98 0.33 98 0.66 98 1 C87.77 1 77.54 1 67 1 C67.8518382 9.73426823 67.8518382 9.73426823 72 12 C75.19806665 12.4603764 75.19806665 12.4603764 78.6875 12.625 C79.86699219 12.69976562 81.04648438 12.77453125 82.26171875 12.8515625 C83.16535156 12.90054688 84.06898438 12.94953125 85 13 C85 13.66 85 14.32 85 15 C78.56744599 15.12086218 72.38226945 14.82351864 66 14 C65.01 8.555 65.01 8.555 64 3 C49.15 2.505 49.15 2.505 34 2 C34 2.66 34 3.32 34 4 C35.65 4 37.3 4 39 4 C39 5.98 39 7.96 39 10 C37.02 10 35.04 10 33 10 C33 7.03 33 4.06 33 1 C22.11 1 11.22 1 0 1 C0 0.67 0 0.34 0 0 Z " fill="#191720" transform="translate(105,150)"/>
<path d="M0 0 C0.66 0 1.32 0 2 0 C2 2.31 2 4.62 2 7 C2.66 7 3.32 7 4 7 C3.979375 6.030625 3.95875 5.06125 3.9375 4.0625 C4 1 4 1 5 0 C6.63472882 -0.08700342 8.27314055 -0.10701063 9.91015625 -0.09765625 C10.89951172 -0.09443359 11.88886719 -0.09121094 12.90820312 -0.08789062 C13.94912109 -0.07951172 14.99003906 -0.07113281 16.0625 -0.0625 C17.62967773 -0.05573242 17.62967773 -0.05573242 19.22851562 -0.04882812 C21.8190666 -0.03699913 24.40950559 -0.02051689 27 0 C27 1.98 27 3.96 27 6 C26.01 6 25.02 6 24 6 C24 6.99 24 7.98 24 9 C22.68 9 21.36 9 20 9 C20 8.34 20 7.68 20 7 C19.01 7 18.02 7 17 7 C17 7.66 17 8.32 17 9 C11.39 9 5.78 9 0 9 C0 6.03 0 3.06 0 0 Z " fill="#4733B1" transform="translate(134,226)"/>
<path d="M0 0 C1.32 0.66 2.64 1.32 4 2 C4.09279707 11.15355759 4.16381394 20.30695253 4.20724869 29.46087837 C4.22809828 33.71171849 4.25636734 37.9622361 4.30175781 42.21289062 C4.34531017 46.31723055 4.36915688 50.42126083 4.37950897 54.52581406 C4.38688357 56.08949532 4.40128466 57.65316017 4.42292023 59.21670914 C4.45208062 61.41193126 4.45595097 63.60588401 4.45410156 65.80126953 C4.46298401 67.04925323 4.47186646 68.29723694 4.48101807 69.58303833 C3.9030246 73.6888748 2.67429188 75.85653151 0 79 C-2.98246919 79.47933959 -5.10030698 79.57619983 -8.046875 79.3671875 C-8.81807678 79.33650177 -9.58927856 79.30581604 -10.3838501 79.27420044 C-12.84154127 79.16981192 -15.29458879 79.02302636 -17.75 78.875 C-19.41783935 78.79667337 -21.08581141 78.72111994 -22.75390625 78.6484375 C-26.83817315 78.46440969 -30.91879482 78.24234133 -35 78 C-35 77.67 -35 77.34 -35 77 C-17.675 76.505 -17.675 76.505 0 76 C0.95888083 72.16447669 1.126805 69.19086695 1.12939453 65.25952148 C1.13114685 64.59075989 1.13289917 63.92199829 1.13470459 63.23297119 C1.13909522 61.02898542 1.13619528 58.8250803 1.1328125 56.62109375 C1.13348626 55.08700037 1.13445689 53.5529071 1.13571167 52.01881409 C1.13718479 48.80688458 1.13504615 45.59498291 1.13037109 42.38305664 C1.12466922 38.26487994 1.12795814 34.14676834 1.13394356 30.02859402 C1.13755545 26.86220305 1.13640777 23.69582754 1.13381577 20.52943611 C1.13314849 19.01077326 1.13396798 17.49210901 1.13629532 15.9734478 C1.13883265 13.85262196 1.13496619 11.73190194 1.12939453 9.61108398 C1.12859894 8.40403305 1.12780334 7.19698212 1.12698364 5.95335388 C1.13315904 2.94083791 1.13315904 2.94083791 0 0 Z " fill="#020010" transform="translate(207,74)"/>
<path d="M0 0 C0.66 0 1.32 0 2 0 C4.39010685 3.58516028 4.24326602 5.14266967 4.22705078 9.39916992 C4.22734283 10.04334366 4.22763489 10.6875174 4.22793579 11.35121155 C4.22654384 13.47776823 4.21098938 15.60397337 4.1953125 17.73046875 C4.19158188 19.20591541 4.18873514 20.68136455 4.18673706 22.15681458 C4.17910442 26.03830822 4.15945917 29.91965196 4.1373291 33.80108643 C4.11686269 37.76255261 4.10773365 41.72404305 4.09765625 45.68554688 C4.07621286 53.45709956 4.04208145 61.22852877 4 69 C3.67 69 3.34 69 3 69 C3 58.77 3 48.54 3 38 C2.01 38 1.02 38 0 38 C-0.33 34.37 -0.66 30.74 -1 27 C-1.33 38.55 -1.66 50.1 -2 62 C-2.33 62 -2.66 62 -3 62 C-3 43.52 -3 25.04 -3 6 C-2.67 6 -2.34 6 -2 6 C-1.67 11.61 -1.34 17.22 -1 23 C0.32 22.67 1.64 22.34 3 22 C2.8859425 19.08252927 2.75919732 16.16655505 2.625 13.25 C2.5940625 12.425 2.563125 11.6 2.53125 10.75 C2.49257812 9.95078125 2.45390625 9.1515625 2.4140625 8.328125 C2.3826416 7.5949707 2.3512207 6.86181641 2.31884766 6.10644531 C1.96227477 3.75077082 1.16337117 2.06549409 0 0 Z " fill="#413B6D" transform="translate(204,75)"/>
<path d="M0 0 C6.93 0 13.86 0 21 0 C21 1.32 21 2.64 21 4 C15.72 4 10.44 4 5 4 C5 7.3 5 10.6 5 14 C5.99 13.34 6.98 12.68 8 12 C11.35546875 11.8046875 11.35546875 11.8046875 15.1875 11.875 C16.45980469 11.89304688 17.73210937 11.91109375 19.04296875 11.9296875 C20.50669922 11.96449219 20.50669922 11.96449219 22 12 C22 13.65 22 15.3 22 17 C16.39 17 10.78 17 5 17 C3.73762269 14.47524538 3.90143596 12.68799534 3.9375 9.875 C3.94652344 8.96492187 3.95554687 8.05484375 3.96484375 7.1171875 C3.97644531 6.41851562 3.98804687 5.71984375 4 5 C2.68 4.67 1.36 4.34 0 4 C0 2.68 0 1.36 0 0 Z " fill="#897DC4" transform="translate(89,186)"/>
<path d="M0 0 C0.99 0 1.98 0 3 0 C3.04936883 4.80548597 3.08570443 9.61082494 3.10986328 14.41650391 C3.11993254 16.05194672 3.13358881 17.68737149 3.15087891 19.32275391 C3.17508705 21.6709437 3.18647357 24.01889588 3.1953125 26.3671875 C3.20563507 27.10057343 3.21595764 27.83395935 3.22659302 28.58956909 C3.22699368 30.39462697 3.12212755 32.1990783 3 34 C2.34 34.66 1.68 35.32 1 36 C1 35.34 1 34.68 1 34 C-0.32 34 -1.64 34 -3 34 C-3 32.68 -3 31.36 -3 30 C-1.35 30 0.3 30 2 30 C2 29.34 2 28.68 2 28 C-15.82 28.33 -33.64 28.66 -52 29 C-51.67 28.34 -51.34 27.68 -51 27 C-34.17 27 -17.34 27 0 27 C0 18.09 0 9.18 0 0 Z " fill="#AEADB1" transform="translate(204,113)"/>
<path d="M0 0 C-0.66 1.32 -1.32 2.64 -2 4 C-2.99 4 -3.98 4 -5 4 C-5 4.66 -5 5.32 -5 6 C-9.99296295 8.9445679 -14.33557626 9.63495936 -20 10 C-20 10.66 -20 11.32 -20 12 C-22.05962852 12.67548578 -24.12284322 13.34004312 -26.1875 14 C-27.33605469 14.37125 -28.48460937 14.7425 -29.66796875 15.125 C-32.64320812 15.90630553 -34.95283896 16.18363306 -38 16 C-37.67 15.34 -37.34 14.68 -37 14 C-36.01 14 -35.02 14 -34 14 C-34 13.34 -34 12.68 -34 12 C-32.58603098 11.49242138 -31.16868271 10.99425075 -29.75 10.5 C-28.96109375 10.2215625 -28.1721875 9.943125 -27.359375 9.65625 C-25 9 -25 9 -21 9 C-21 8.34 -21 7.68 -21 7 C-20.18208984 6.74476562 -20.18208984 6.74476562 -19.34765625 6.484375 C-14.37112944 4.88508091 -9.66131777 3.02611442 -4.9453125 0.76953125 C-3 0 -3 0 0 0 Z " fill="#3420AC" transform="translate(186,113)"/>
<path d="M0 0 C12.21 0 24.42 0 37 0 C36.67 0.66 36.34 1.32 36 2 C28.32586938 4.32746697 20.9036422 4.23511148 12.9375 4.125 C11.69033203 4.11597656 10.44316406 4.10695312 9.15820312 4.09765625 C6.10526496 4.07426209 3.05273694 4.04148174 0 4 C0 2.68 0 1.36 0 0 Z " fill="#3723AA" transform="translate(108,129)"/>
<path d="M0 0 C2.64 0 5.28 0 8 0 C8.33 1.98 8.66 3.96 9 6 C8.01 5.67 7.02 5.34 6 5 C6 4.34 6 3.68 6 3 C5.01 3 4.02 3 3 3 C3.33 3.66 3.66 4.32 4 5 C4.08449628 6.7404417 4.10723024 8.48409722 4.09765625 10.2265625 C4.09282227 11.7734375 4.09282227 11.7734375 4.08789062 13.3515625 C4.07951172 14.43179688 4.07113281 15.51203125 4.0625 16.625 C4.05798828 17.71296875 4.05347656 18.8009375 4.04882812 19.921875 C4.03701776 22.61463789 4.02054778 25.30729188 4 28 C2.68 28 1.36 28 0 28 C0 18.76 0 9.52 0 0 Z " fill="#E1E0E6" transform="translate(200,187)"/>
<path d="M0 0 C1.76462683 3.08809695 2 4.23312136 2 8 C3.98 8 5.96 8 8 8 C7.67 8.99 7.34 9.98 7 11 C5.35 11.33 3.7 11.66 2 12 C2 13.98 2 15.96 2 18 C1.01 17.34 0.02 16.68 -1 16 C-2.9896995 15.60986284 -4.99019869 15.26797351 -7 15 C-6.67 12.69 -6.34 10.38 -6 8 C-6.66 8 -7.32 8 -8 8 C-8 7.01 -8 6.02 -8 5 C-6.8553125 4.87625 -6.8553125 4.87625 -5.6875 4.75 C-2.47626739 3.85384206 -1.70625501 2.78388975 0 0 Z " fill="#3C3CE5" transform="translate(220,73)"/>
<path d="M0 0 C1.65 0.33 3.3 0.66 5 1 C5.33 4.63 5.66 8.26 6 12 C6.66 12 7.32 12 8 12 C8.33 16.29 8.66 20.58 9 25 C8.01 24.67 7.02 24.34 6 24 C4.83203125 20.9453125 4.83203125 20.9453125 3.8125 17.125 C3.46832031 15.86945313 3.12414063 14.61390625 2.76953125 13.3203125 C2 10 2 10 2 7 C1.34 7 0.68 7 0 7 C-0.12375 7.78375 -0.2475 8.5675 -0.375 9.375 C-1 12 -1 12 -3 14 C-2.88617347 12.04098546 -2.75858875 10.0827662 -2.625 8.125 C-2.55539063 7.03445312 -2.48578125 5.94390625 -2.4140625 4.8203125 C-2 2 -2 2 0 0 Z " fill="#BFBAD8" transform="translate(58,187)"/>
<path d="M0 0 C1.258125 -0.04125 2.51625 -0.0825 3.8125 -0.125 C4.52019531 -0.14820313 5.22789063 -0.17140625 5.95703125 -0.1953125 C8 0 8 0 11 2 C11 1.34 11 0.68 11 0 C13.97 0 16.94 0 20 0 C19.01 0.33 18.02 0.66 17 1 C17.185625 1.598125 17.37125 2.19625 17.5625 2.8125 C18 5 18 5 17 8 C17.99 8.33 18.98 8.66 20 9 C18.02 9 16.04 9 14 9 C13.67 8.01 13.34 7.02 13 6 C12.01 7.485 12.01 7.485 11 9 C10.01 8.67 9.02 8.34 8 8 C6.8125 4.9375 6.8125 4.9375 6 2 C4.7018576 3.1490712 4.7018576 3.1490712 4 6 C4.66 6.33 5.32 6.66 6 7 C6 7.66 6 8.32 6 9 C4.02 9 2.04 9 0 9 C0 6.03 0 3.06 0 0 Z " fill="#7163C7" transform="translate(112,226)"/>
<path d="M0 0 C1.32 0 2.64 0 4 0 C4 9.57 4 19.14 4 29 C2.68 29 1.36 29 0 29 C0 19.43 0 9.86 0 0 Z " fill="#D7D5E1" transform="translate(184,186)"/>
<path d="M0 0 C1.32 0 2.64 0 4 0 C4 9.57 4 19.14 4 29 C1.36 29 -1.28 29 -4 29 C-1 27 -1 27 2 27 C1.67402832 26.45182617 1.34805664 25.90365234 1.01220703 25.33886719 C-0.18670817 22.56858072 -0.22877119 20.58940683 -0.1953125 17.578125 C-0.18886719 16.55332031 -0.18242187 15.52851563 -0.17578125 14.47265625 C-0.15902344 13.40917969 -0.14226562 12.34570312 -0.125 11.25 C-0.11597656 10.17105469 -0.10695312 9.09210938 -0.09765625 7.98046875 C-0.07411305 5.32008722 -0.04122799 2.66015664 0 0 Z " fill="#E3E3E6" transform="translate(221,186)"/>
<path d="M0 0 C6.6 0 13.2 0 20 0 C20 0.33 20 0.66 20 1 C14.06 1 8.12 1 2 1 C2 1.99 2 2.98 2 4 C2.99 4 3.98 4 5 4 C4.125 7.875 4.125 7.875 3 9 C2.84313751 10.55948542 2.74923361 12.12542668 2.68359375 13.69140625 C2.64548584 14.54162354 2.60737793 15.39184082 2.56811523 16.26782227 C2.52501221 17.35506592 2.48190918 18.44230957 2.4375 19.5625 C2.2209375 24.7290625 2.2209375 24.7290625 2 30 C9.59 30 17.18 30 25 30 C25 30.66 25 31.32 25 32 C17.08 32 9.16 32 1 32 C1 23.33333333 1 14.66666667 1 6 C0.67 4.02 0.34 2.04 0 0 Z " fill="#6958B7" transform="translate(118,185)"/>
<path d="M0 0 C0.99 0 1.98 0 3 0 C3.33 6.93 3.66 13.86 4 21 C9.28 21 14.56 21 20 21 C20 21.66 20 22.32 20 23 C13.4 23 6.8 23 0 23 C0 15.41 0 7.82 0 0 Z " fill="#DCDBE4" transform="translate(89,192)"/>
<path d="M0 0 C1.4540625 0.0309375 1.4540625 0.0309375 2.9375 0.0625 C2.96215504 4.45906173 2.98033842 8.8555872 2.99243164 13.25219727 C2.99747121 14.74894918 3.00430287 16.24569616 3.01293945 17.74243164 C3.02502159 19.88949807 3.03073191 22.03649962 3.03515625 24.18359375 C3.04039307 25.4770874 3.04562988 26.77058105 3.05102539 28.10327148 C2.9375 31.0625 2.9375 31.0625 1.9375 32.0625 C-0.5625 32.1875 -0.5625 32.1875 -3.0625 32.0625 C-4.94569268 30.17930732 -4.19304285 26.94319863 -4.1953125 24.4375 C-4.19626923 23.77540527 -4.19722595 23.11331055 -4.19821167 22.43115234 C-4.19889326 21.02897039 -4.19704042 19.6267853 -4.19287109 18.22460938 C-4.18752246 16.07154287 -4.1928167 13.91868498 -4.19921875 11.765625 C-4.19855796 10.40624954 -4.19727679 9.0468742 -4.1953125 7.6875 C-4.19418457 6.44226563 -4.19305664 5.19703125 -4.19189453 3.9140625 C-4.01250928 -0.03918231 -3.99064254 0.08144168 0 0 Z M-2.0625 2.0625 C-2.0625 11.6325 -2.0625 21.2025 -2.0625 31.0625 C-0.7425 31.0625 0.5775 31.0625 1.9375 31.0625 C1.9375 21.4925 1.9375 11.9225 1.9375 2.0625 C0.6175 2.0625 -0.7025 2.0625 -2.0625 2.0625 Z " fill="#6C5CB9" transform="translate(186.0625,183.9375)"/>
<path d="M0 0 C0.99 0.495 0.99 0.495 2 1 C2.50836535 4.61127682 2.84122622 8.19607498 3.12304688 11.83007812 C3.31874678 13.89815014 3.65147124 15.95213575 4 18 C7.60640667 20.40427111 10.33681206 20.34578876 14.51171875 20.4140625 C15.23994339 20.43342865 15.96816803 20.4527948 16.71846008 20.4727478 C19.04135475 20.53246376 21.36429919 20.57889617 23.6875 20.625 C25.26369332 20.66318721 26.83986595 20.70223938 28.41601562 20.7421875 C32.27717535 20.83815848 36.13843276 20.92221849 40 21 C40 23.97 40 26.94 40 30 C39.67 30 39.34 30 39 30 C39 27.36 39 24.72 39 22 C37.96069336 22.04600342 36.92138672 22.09200684 35.85058594 22.1394043 C31.98963323 22.30614242 28.12812567 22.45218993 24.26611328 22.59204102 C22.59564261 22.65541711 20.92537411 22.72438139 19.25537109 22.79907227 C16.85285403 22.90554908 14.45032342 22.99181579 12.046875 23.07421875 C10.9294693 23.1302552 10.9294693 23.1302552 9.78948975 23.18742371 C6.65109429 23.27814612 4.36486051 23.17854876 1.52148438 21.78710938 C-0.43214682 19.49240777 -0.46674964 18.31992328 -0.390625 15.33203125 C-0.37773438 14.43935547 -0.36484375 13.54667969 -0.3515625 12.62695312 C-0.31804687 11.69818359 -0.28453125 10.76941406 -0.25 9.8125 C-0.23195313 8.87212891 -0.21390625 7.93175781 -0.1953125 6.96289062 C-0.1481655 4.64090111 -0.08238231 2.3209631 0 0 Z " fill="#05040C" transform="translate(98,130)"/>
<path d="M0 0 C0.99 0 1.98 0 3 0 C2.01 8.25 1.02 16.5 0 25 C-0.66 25 -1.32 25 -2 25 C-2 25.99 -2 26.98 -2 28 C-4.31 28 -6.62 28 -9 28 C-9 27.34 -9 26.68 -9 26 C-7.68 25.67 -6.36 25.34 -5 25 C-4.34 21.04 -3.68 17.08 -3 13 C-2.34 13 -1.68 13 -1 13 C-1.01160156 12.31292969 -1.02320312 11.62585938 -1.03515625 10.91796875 C-1.04417969 10.01691406 -1.05320312 9.11585938 -1.0625 8.1875 C-1.07410156 7.29417969 -1.08570312 6.40085938 -1.09765625 5.48046875 C-1 3 -1 3 0 0 Z " fill="#D4D2E0" transform="translate(76,187)"/>
<path d="M0 0 C0 1.32 0 2.64 0 4 C-1.8984375 5.703125 -1.8984375 5.703125 -4.375 7.25 C-5.18710938 7.77078125 -5.99921875 8.2915625 -6.8359375 8.828125 C-9 10 -9 10 -11 10 C-11 10.66 -11 11.32 -11 12 C-12.60032137 12.84069415 -14.20541171 13.67231505 -15.8125 14.5 C-16.70582031 14.9640625 -17.59914062 15.428125 -18.51953125 15.90625 C-21 17 -21 17 -24 17 C-23.67 16.34 -23.34 15.68 -23 15 C-23.66 14.67 -24.32 14.34 -25 14 C-24.15824219 13.59910156 -23.31648437 13.19820312 -22.44921875 12.78515625 C-18.74474972 10.86789425 -15.2989352 8.71838023 -11.8125 6.4375 C-11.19697266 6.03853516 -10.58144531 5.63957031 -9.94726562 5.22851562 C-1.89063804 0 -1.89063804 0 0 0 Z " fill="#2915AA" transform="translate(201,113)"/>
<path d="M0 0 C4.62 0 9.24 0 14 0 C14 2.31 14 4.62 14 7 C9.38 7 4.76 7 0 7 C0 4.69 0 2.38 0 0 Z " fill="#1E049C" transform="translate(125,203)"/>
<path d="M0 0 C0.66 0.33 1.32 0.66 2 1 C4.0374763 1.22858114 6.08040303 1.41024278 8.125 1.5625 C10.06375 1.706875 12.0025 1.85125 14 2 C14 6.95 14 11.9 14 17 C12.68 17 11.36 17 10 17 C9.67 13.04 9.34 9.08 9 5 C4.71 4.67 0.42 4.34 -4 4 C-2.68 2.68 -1.36 1.36 0 0 Z " fill="#D9D7E2" transform="translate(248,198)"/>
<path d="M0 0 C15.84 0 31.68 0 48 0 C47.67 0.66 47.34 1.32 47 2 C41.09858129 3.86360591 35.14040005 4.22742222 29 4 C29.33 3.34 29.66 2.68 30 2 C15.15 1.505 15.15 1.505 0 1 C0 0.67 0 0.34 0 0 Z " fill="#241896" transform="translate(105,140)"/>
<path d="M0 0 C0.33 0 0.66 0 1 0 C1 6.6 1 13.2 1 20 C6.94 20 12.88 20 19 20 C19 20.33 19 20.66 19 21 C12.07 21 5.14 21 -2 21 C-2.04125 17.90625 -2.0825 14.8125 -2.125 11.625 C-2.14320801 10.65127441 -2.16141602 9.67754883 -2.18017578 8.67431641 C-2.1851709 7.90780762 -2.19016602 7.14129883 -2.1953125 6.3515625 C-2.20578613 5.56604004 -2.21625977 4.78051758 -2.22705078 3.97119141 C-2 2 -2 2 0 0 Z " fill="#E9E9E9" transform="translate(123,193)"/>
<path d="M0 0 C10.56 0 21.12 0 32 0 C32 0.99 32 1.98 32 3 C21.44 3 10.88 3 0 3 C0 2.01 0 1.02 0 0 Z " fill="#8B8997" transform="translate(138,160)"/>
<path d="M0 0 C1.98 0 3.96 0 6 0 C6.66 2.31 7.32 4.62 8 7 C8.66 7 9.32 7 10 7 C9.67 7.99 9.34 8.98 9 10 C6.03 10 3.06 10 0 10 C0 6.7 0 3.4 0 0 Z " fill="#402BAD" transform="translate(163,225)"/>
<path d="M0 0 C3.96 0 7.92 0 12 0 C12 1.98 12 3.96 12 6 C10.02 6.66 8.04 7.32 6 8 C5.67 7.34 5.34 6.68 5 6 C3.35 6 1.7 6 0 6 C0 4.02 0 2.04 0 0 Z " fill="#7162C7" transform="translate(149,226)"/>
<path d="M0 0 C3.3 0 6.6 0 10 0 C10 2.31 10 4.62 10 7 C7.36 7 4.72 7 2 7 C2 7.66 2 8.32 2 9 C1.34 9 0.68 9 0 9 C0 6.03 0 3.06 0 0 Z " fill="#1C029B" transform="translate(125,191)"/>
<path d="M0 0 C0.33 0 0.66 0 1 0 C1 9.57 1 19.14 1 29 C2.32 29 3.64 29 5 29 C4.67 20.75 4.34 12.5 4 4 C4.99 4 5.98 4 7 4 C7.33 5.32 7.66 6.64 8 8 C7.67 8 7.34 8 7 8 C6.67 15.59 6.34 23.18 6 31 C4.02 31 2.04 31 0 31 C0 20.77 0 10.54 0 0 Z " fill="#7465BB" transform="translate(199,186)"/>
<path d="M0 0 C6.0546875 -0.1953125 6.0546875 -0.1953125 8 0 C10 2 10 2 10 6 C10.66 6 11.32 6 12 6 C12.6708712 7.6232687 13.33657029 9.24867578 14 10.875 C14.37125 11.77992188 14.7425 12.68484375 15.125 13.6171875 C16 16 16 16 16 18 C15.34 18 14.68 18 14 18 C13.67 16.35 13.34 14.7 13 13 C12.67 14.65 12.34 16.3 12 18 C9.30192717 16.65096358 8.65529311 14.76363139 7.53125 12.0546875 C6.61898651 8.5263743 7.31564694 5.54619314 8 2 C5.36 2 2.72 2 0 2 C0 1.34 0 0.68 0 0 Z " fill="#BAB4D6" transform="translate(200,185)"/>
<path d="M0 0 C0.66 0 1.32 0 2 0 C2 1.98 2 3.96 2 6 C2.969375 6.309375 3.93875 6.61875 4.9375 6.9375 C8 8 8 8 9 9 C9.33 7.35 9.66 5.7 10 4 C12.29013653 7.4352048 12.17842973 8.985331 12 13 C9.53199953 11.84826645 7.95216435 10.95216435 6 9 C3.93125966 8.3574765 3.93125966 8.3574765 2 8 C2 8.66 2 9.32 2 10 C2.66 10 3.32 10 4 10 C3.44855089 14.08072342 3.08669204 14.91330796 0 18 C0 12.06 0 6.12 0 0 Z " fill="#2B1EBF" transform="translate(212,81)"/>
<path d="M0 0 C0 0.99 0 1.98 0 3 C-0.9590625 3.1546875 -0.9590625 3.1546875 -1.9375 3.3125 C-2.618125 3.539375 -3.29875 3.76625 -4 4 C-4.33 4.99 -4.66 5.98 -5 7 C-7.8125 9.75 -7.8125 9.75 -11 12 C-13.375 11.8125 -13.375 11.8125 -15 11 C-13.625 8.5 -13.625 8.5 -12 6 C-11.34 6 -10.68 6 -10 6 C-10 5.34 -10 4.68 -10 4 C-6.95728913 0.0210704 -4.91525785 -0.44684162 0 0 Z " fill="#C4BFDA" transform="translate(263,185)"/>
<path d="M0 0 C0.33 0 0.66 0 1 0 C1.144375 1.134375 1.28875 2.26875 1.4375 3.4375 C1.61171478 6.80777201 1.61171478 6.80777201 3 8 C4.85174706 8.15786308 6.7090911 8.25107356 8.56640625 8.31640625 C10.2534668 8.37924805 10.2534668 8.37924805 11.97460938 8.44335938 C13.15861328 8.48267578 14.34261719 8.52199219 15.5625 8.5625 C16.75037109 8.60568359 17.93824219 8.64886719 19.16210938 8.69335938 C22.10794784 8.79983546 25.0538743 8.90184841 28 9 C27.67 9.66 27.34 10.32 27 11 C18.09 11 9.18 11 0 11 C0 7.37 0 3.74 0 0 Z " fill="#3D3EE5" transform="translate(102,132)"/>
<path d="M0 0 C0.66 0 1.32 0 2 0 C2 2.31 2 4.62 2 7 C2.66 7 3.32 7 4 7 C3.979375 6.030625 3.95875 5.06125 3.9375 4.0625 C4 1 4 1 5 0 C7.33297433 -0.04092937 9.66705225 -0.04241723 12 0 C12 2.31 12 4.62 12 7 C11.67 7 11.34 7 11 7 C11 5.35 11 3.7 11 2 C9.68 2 8.36 2 7 2 C7 3.98 7 5.96 7 8 C7.99 8.33 8.98 8.66 10 9 C6.7 9 3.4 9 0 9 C0 6.03 0 3.06 0 0 Z " fill="#7264C7" transform="translate(134,226)"/>
<path d="M0 0 C1.37478516 0.01740234 1.37478516 0.01740234 2.77734375 0.03515625 C3.69644531 0.04417969 4.61554688 0.05320313 5.5625 0.0625 C6.27277344 0.07410156 6.98304688 0.08570313 7.71484375 0.09765625 C7.71484375 0.42765625 7.71484375 0.75765625 7.71484375 1.09765625 C6.06484375 1.42765625 4.41484375 1.75765625 2.71484375 2.09765625 C6.34484375 2.09765625 9.97484375 2.09765625 13.71484375 2.09765625 C10.55243793 4.2059268 9.20826906 4.4358309 5.52734375 4.72265625 C4.62628906 4.79742187 3.72523438 4.8721875 2.796875 4.94921875 C2.10980469 4.99820313 1.42273438 5.0471875 0.71484375 5.09765625 C0.71484375 4.43765625 0.71484375 3.77765625 0.71484375 3.09765625 C-9.51515625 3.09765625 -19.74515625 3.09765625 -30.28515625 3.09765625 C-30.28515625 2.76765625 -30.28515625 2.43765625 -30.28515625 2.09765625 C-29.06614624 2.06007202 -29.06614624 2.06007202 -27.82250977 2.02172852 C-24.16404873 1.90616507 -20.50587097 1.78326041 -16.84765625 1.66015625 C-15.56826172 1.62083984 -14.28886719 1.58152344 -12.97070312 1.54101562 C-11.14829102 1.47817383 -11.14829102 1.47817383 -9.2890625 1.4140625 C-8.16314697 1.37740479 -7.03723145 1.34074707 -5.87719727 1.30297852 C-3.01098513 1.07593845 -2.77619917 0.11864099 0 0 Z " fill="#372AC0" transform="translate(132.28515625,140.90234375)"/>
<path d="M0 0 C0.82638376 2.89234315 1 4.88742431 1 8 C1.66 6.35 2.32 4.7 3 3 C3.33 3 3.66 3 4 3 C3.39700836 10.23589973 1.8849413 16.99370876 0 24 C-0.33 24 -0.66 24 -1 24 C-0.67 19.71 -0.34 15.42 0 11 C-0.66 11 -1.32 11 -2 11 C-2.33 12.65 -2.66 14.3 -3 16 C-4.53445094 12.93109813 -3.54984289 10.29905734 -3 7 C-2.34 7 -1.68 7 -1 7 C-0.67 4.69 -0.34 2.38 0 0 Z " fill="#8E82C5" transform="translate(55,191)"/>
<path d="M0 0 C6.93 0 13.86 0 21 0 C21 0.99 21 1.98 21 3 C14.07 3 7.14 3 0 3 C0 2.01 0 1.02 0 0 Z " fill="#D9D8E2" transform="translate(89,186)"/>
<path d="M0 0 C2.625 0.375 2.625 0.375 5 1 C5.33 3.31 5.66 5.62 6 8 C5.01 8.33 4.02 8.66 3 9 C3 8.01 3 7.02 3 6 C-0.24732932 7.62366466 -0.70155136 10.75387839 -2 14 C-2.33 14 -2.66 14 -3 14 C-2.88617347 12.04098546 -2.75858875 10.0827662 -2.625 8.125 C-2.55539063 7.03445312 -2.48578125 5.94390625 -2.4140625 4.8203125 C-2 2 -2 2 0 0 Z " fill="#E2E1E6" transform="translate(58,187)"/>
<path d="M0 0 C1.99954746 -0.04254356 4.00041636 -0.04080783 6 0 C7 1 7 1 7.125 4.5 C7 8 7 8 6 9 C4.00041636 9.04080783 1.99954746 9.04254356 0 9 C0 6.03 0 3.06 0 0 Z " fill="#6353BF" transform="translate(104,226)"/>
<path d="M0 0 C0.66 0 1.32 0 2 0 C2.07654536 4.51617599 2.10228696 8.59085217 1 13 C-1.64 13 -4.28 13 -7 13 C-7 11.35 -7 9.7 -7 8 C-4.525 8.495 -4.525 8.495 -2 9 C-1.7834375 7.88625 -1.7834375 7.88625 -1.5625 6.75 C-1.09812508 4.47972261 -0.58136431 2.24240521 0 0 Z " fill="#E0DFE5" transform="translate(53,202)"/>
<path d="M0 0 C7.26 0 14.52 0 22 0 C22.33 1.65 22.66 3.3 23 5 C22.67 4.01 22.34 3.02 22 2 C15.07 2 8.14 2 1 2 C1 3.32 1 4.64 1 6 C1.66 6 2.32 6 3 6 C2.67 6.66 2.34 7.32 2 8 C0.4375 6.8125 0.4375 6.8125 -1 5 C-0.67 3.35 -0.34 1.7 0 0 Z " fill="#6150B5" transform="translate(88,184)"/>
<path d="M0 0 C0.66 0 1.32 0 2 0 C2.33 3.63 2.66 7.26 3 11 C-3.27 11 -9.54 11 -16 11 C-16 11.66 -16 12.32 -16 13 C-13.36 13 -10.72 13 -8 13 C-8 13.33 -8 13.66 -8 14 C-10.97 14 -13.94 14 -17 14 C-17 12.68 -17 11.36 -17 10 C-16.10796875 9.93941406 -15.2159375 9.87882813 -14.296875 9.81640625 C-12.54117188 9.69072266 -12.54117188 9.69072266 -10.75 9.5625 C-9.58984375 9.48128906 -8.4296875 9.40007812 -7.234375 9.31640625 C-4.69022624 9.06752213 -2.44046752 8.71885058 0 8 C0 5.36 0 2.72 0 0 Z " fill="#170C4F" transform="translate(135,152)"/>
<path d="M0 0 C-0.25 1.875 -0.25 1.875 -1 4 C-2.32467746 4.6837045 -3.65863633 5.34964186 -5 6 C-5.33 6.66 -5.66 7.32 -6 8 C-7.29013539 10.58027077 -8.38951945 10.83978642 -11 12 C-13.01182457 13.31542376 -15.01399663 14.6459068 -17 16 C-15.46781315 12.36938333 -13.2816856 10.0136227 -10.5 7.25 C-9.30890625 6.05117187 -9.30890625 6.05117187 -8.09375 4.828125 C-6 3 -6 3 -4 3 C-4 2.34 -4 1.68 -4 1 C-2 0 -2 0 0 0 Z " fill="#332CD0" transform="translate(97,85)"/>
<path d="M0 0 C0.99 0.33 1.98 0.66 3 1 C3 6.94 3 12.88 3 19 C2.01 19 1.02 19 0 19 C0 12.73 0 6.46 0 0 Z " fill="#B2B1B7" transform="translate(204,78)"/>
<path d="M0 0 C0.5775 0.37125 1.155 0.7425 1.75 1.125 C4 2.29166667 4 2.29166667 6.25 1.125 C6.8275 0.75375 7.405 0.3825 8 0 C8 2.64 8 5.28 8 8 C7.34 7.67 6.68 7.34 6 7 C5.67 7.66 5.34 8.32 5 9 C3 9 3 9 1.375 7.875 C-0.55651159 5.24112056 -0.21205536 3.18083044 0 0 Z " fill="#8175CF" transform="translate(170,226)"/>
<path d="M0 0 C4.29 0 8.58 0 13 0 C12.01 0.495 12.01 0.495 11 1 C11 3.97 11 6.94 11 10 C9.35 9.67 7.7 9.34 6 9 C6 6.69 6 4.38 6 2 C3.03 1.505 3.03 1.505 0 1 C0 0.67 0 0.34 0 0 Z " fill="#3A25AB" transform="translate(123,225)"/>
<path d="M0 0 C0.33 0 0.66 0 1 0 C1.75475351 8.35619957 2.13605482 16.60995285 2 25 C1.01 25 0.02 25 -1 25 C-1.13605482 16.60995285 -0.75475351 8.35619957 0 0 Z " fill="#070719" transform="translate(105,115)"/>
<path d="M0 0 C1.65 0 3.3 0 5 0 C4.01 0.495 4.01 0.495 3 1 C3 3.31 3 5.62 3 8 C3.66 8.33 4.32 8.66 5 9 C2.03 9 -0.94 9 -4 9 C-4 8.01 -4 7.02 -4 6 C-3.67 6.33 -3.34 6.66 -3 7 C-2.67 5.68 -2.34 4.36 -2 3 C-1.34 3 -0.68 3 0 3 C0 2.01 0 1.02 0 0 Z " fill="#6D5EC5" transform="translate(180,226)"/>
<path d="M0 0 C0.495 1.485 0.495 1.485 1 3 C0.67 3.66 0.34 4.32 0 5 C-11.55 4.67 -23.1 4.34 -35 4 C-35 3.67 -35 3.34 -35 3 C-17.675 2.505 -17.675 2.505 0 2 C0 1.34 0 0.68 0 0 Z " fill="#070510" transform="translate(207,148)"/>
<path d="M0 0 C-7.94423639 3.29352999 -15.03420082 3.35762975 -23.5625 3.1875 C-25.50479492 3.16719727 -25.50479492 3.16719727 -27.48632812 3.14648438 C-30.65799214 3.1113737 -33.8287709 3.06219347 -37 3 C-37 2.67 -37 2.34 -37 2 C-36.42668945 1.98018066 -35.85337891 1.96036133 -35.26269531 1.93994141 C-20.68116671 1.47238903 -20.68116671 1.47238903 -6.27734375 -0.6953125 C-3.84867378 -1.02024605 -2.33229309 -0.6516566 0 0 Z " fill="#C5C1DA" transform="translate(140,146)"/>
<path d="M0 0 C0.66 0 1.32 0 2 0 C2.09765625 6.15234375 2.09765625 6.15234375 2 8 C1 9 1 9 -2.37890625 9.09765625 C-3.77347077 9.09098369 -5.16801743 9.07902532 -6.5625 9.0625 C-7.62887695 9.05573242 -7.62887695 9.05573242 -8.71679688 9.04882812 C-10.47790013 9.03700864 -12.23896036 9.01907263 -14 9 C-14 8.34 -14 7.68 -14 7 C-9.38 7 -4.76 7 0 7 C0 4.69 0 2.38 0 0 Z " fill="#6757B7" transform="translate(139,203)"/>
<path d="M0 0 C0.33 0 0.66 0 1 0 C1 3.3 1 6.6 1 10 C1.99 10 2.98 10 4 10 C5.50156874 13.00313748 5.09281204 15.79067522 5.0625 19.125 C5.05347656 20.40632813 5.04445312 21.68765625 5.03515625 23.0078125 C5.02355469 23.99523437 5.01195312 24.98265625 5 26 C4.34 26 3.68 26 3 26 C2.67 21.05 2.34 16.1 2 11 C1.34 11 0.68 11 0 11 C0 7.37 0 3.74 0 0 Z " fill="#9085C7" transform="translate(141,188)"/>
<path d="M0 0 C0 1.65 0 3.3 0 5 C-7.28571429 9.42857143 -7.28571429 9.42857143 -12 10 C-12 9.34 -12 8.68 -12 8 C-11.21625 7.938125 -10.4325 7.87625 -9.625 7.8125 C-8.75875 7.544375 -7.8925 7.27625 -7 7 C-5.83046584 4.57616923 -5.83046584 4.57616923 -5 2 C-2 0 -2 0 0 0 Z " fill="#301BA6" transform="translate(201,102)"/>
<path d="M0 0 C4.62 0 9.24 0 14 0 C14 0.99 14 1.98 14 3 C9.38 3 4.76 3 0 3 C0 2.01 0 1.02 0 0 Z " fill="#DAD8E3" transform="translate(96,199)"/>
<path d="M0 0 C2.375 -0.125 2.375 -0.125 5 0 C7.39763185 2.39763185 7.34280586 3.33273498 7.625 6.625 C7.69976562 7.44226563 7.77453125 8.25953125 7.8515625 9.1015625 C7.92503906 10.04128906 7.92503906 10.04128906 8 11 C8.66 11 9.32 11 10 11 C10.33 13.64 10.66 16.28 11 19 C10.34 18.67 9.68 18.34 9 18 C9 16.68 9 15.36 9 14 C8.34 14 7.68 14 7 14 C6.67 10.37 6.34 6.74 6 3 C1.372678 2.627322 1.372678 2.627322 -1 4 C-0.67 2.68 -0.34 1.36 0 0 Z " fill="#8175C1" transform="translate(57,185)"/>
<path d="M0 0 C0.99 0 1.98 0 3 0 C3 2.31 3 4.62 3 7 C-3.27 7 -9.54 7 -16 7 C-16 6.67 -16 6.34 -16 6 C-11.05 6 -6.1 6 -1 6 C-0.67 4.02 -0.34 2.04 0 0 Z " fill="#E2E1E6" transform="translate(173,208)"/>
<path d="M0 0 C0.99 0.33 1.98 0.66 3 1 C3 4.96 3 8.92 3 13 C2.01 13 1.02 13 0 13 C0 8.71 0 4.42 0 0 Z " fill="#E9E9E9" transform="translate(258,201)"/>
<path d="M0 0 C0.99 0 1.98 0 3 0 C2.91266424 1.60517097 2.80447776 3.20921662 2.6875 4.8125 C2.62949219 5.70582031 2.57148437 6.59914062 2.51171875 7.51953125 C1.93686419 10.30604 1.1793144 11.24135754 -1 13 C-1.02708567 11.39592672 -1.04643483 9.7917215 -1.0625 8.1875 C-1.07410156 7.29417969 -1.08570312 6.40085938 -1.09765625 5.48046875 C-1 3 -1 3 0 0 Z M-3 13 C-2.01 13.495 -2.01 13.495 -1 14 C-1.99 14.495 -1.99 14.495 -3 15 C-3 14.34 -3 13.68 -3 13 Z " fill="#E6E6E7" transform="translate(76,187)"/>
<path d="M0 0 C0.78375 0.04125 1.5675 0.0825 2.375 0.125 C2.09437057 2.60588355 1.80109401 5.08409185 1.5 7.5625 C1.42136719 8.26955078 1.34273438 8.97660156 1.26171875 9.70507812 C1.03572324 11.52173432 0.71199273 13.32562522 0.375 15.125 C-0.615 15.62 -0.615 15.62 -1.625 16.125 C-1.48366501 14.35380197 -1.33676792 12.58304713 -1.1875 10.8125 C-1.10628906 9.82636719 -1.02507812 8.84023437 -0.94140625 7.82421875 C-0.625 5.125 -0.625 5.125 0.375 2.125 C-0.615 2.125 -1.605 2.125 -2.625 2.125 C-2.955 3.445 -3.285 4.765 -3.625 6.125 C-4.25 4.25 -4.25 4.25 -4.625 2.125 C-2.625 0.125 -2.625 0.125 0 0 Z " fill="#9A90CA" transform="translate(78.625,184.875)"/>
<path d="M0 0 C1.98 0 3.96 0 6 0 C6 1.98 6 3.96 6 6 C4.02 6 2.04 6 0 6 C0 4.02 0 2.04 0 0 Z " fill="#200897" transform="translate(163,154)"/>
<path d="M0 0 C-0.33 0.66 -0.66 1.32 -1 2 C-5.44500224 3.33350067 -9.3318831 4.29175731 -14 4 C-13.67 3.34 -13.34 2.68 -13 2 C-12.01 2 -11.02 2 -10 2 C-10 1.34 -10 0.68 -10 0 C-6.33694766 -0.74926071 -3.57644848 -1.2380014 0 0 Z " fill="#240DA5" transform="translate(162,125)"/>
<path d="M0 0 C0.66 0.33 1.32 0.66 2 1 C0.6875 2.5 0.6875 2.5 -1 4 C-1.99 4 -2.98 4 -4 4 C-4 4.66 -4 5.32 -4 6 C-3.01 6.33 -2.02 6.66 -1 7 C-1.99 7 -2.98 7 -4 7 C-4 7.66 -4 8.32 -4 9 C-5.32 9.33 -6.64 9.66 -8 10 C-7.67 9.01 -7.34 8.02 -7 7 C-8.32 7.33 -9.64 7.66 -11 8 C-11 7.34 -11 6.68 -11 6 C-9.73308493 5.32591692 -8.46129251 4.66099503 -7.1875 4 C-6.47980469 3.62875 -5.77210938 3.2575 -5.04296875 2.875 C-3 2 -3 2 0 2 C0 1.34 0 0.68 0 0 Z " fill="#5545B7" transform="translate(193,106)"/>
<path d="M0 0 C0.66 0 1.32 0 2 0 C2 2.64 2 5.28 2 8 C0.0625 7.6875 0.0625 7.6875 -2 7 C-2.33 6.01 -2.66 5.02 -3 4 C-3.66 4 -4.32 4 -5 4 C-5 3.01 -5 2.02 -5 1 C-3.02 1.99 -3.02 1.99 -1 3 C-0.67 2.01 -0.34 1.02 0 0 Z " fill="#887DD3" transform="translate(193,226)"/>
<path d="M0 0 C-3.52679099 2.35119399 -5.02879485 2.21443452 -9.1875 2.125 C-10.27417969 2.10695312 -11.36085937 2.08890625 -12.48046875 2.0703125 C-13.72763672 2.03550781 -13.72763672 2.03550781 -15 2 C-14 0 -14 0 -12.109375 -0.703125 C-4.32027347 -2.50854588 -4.32027347 -2.50854588 0 0 Z " fill="#2F1DAD" transform="translate(170,135)"/>
<path d="M0 0 C1.32 0.33 2.64 0.66 4 1 C4 4.63 4 8.26 4 12 C3.67 12 3.34 12 3 12 C3 9.36 3 6.72 3 4 C2.34 4 1.68 4 1 4 C1 7.96 1 11.92 1 16 C0.67 16 0.34 16 0 16 C0 10.72 0 5.44 0 0 Z " fill="#1C156E" transform="translate(100,127)"/>
<path d="M0 0 C3.64575537 3.64575537 4.125 8.45017592 4.125 13.4375 C4.08375 14.613125 4.0425 15.78875 4 17 C4.66 17 5.32 17 6 17 C6 17.66 6 18.32 6 19 C5.01 19 4.02 19 3 19 C2.49521515 16.58424393 1.99602358 14.16755639 1.5 11.75 C1.35691406 11.06808594 1.21382812 10.38617188 1.06640625 9.68359375 C0.38748951 6.35366879 0 3.41667449 0 0 Z " fill="#5F4EB4" transform="translate(45,192)"/>
<path d="M0 0 C0.33 0 0.66 0 1 0 C1.33 8.25 1.66 16.5 2 25 C1.01 25 0.02 25 -1 25 C-1.33 23.68 -1.66 22.36 -2 21 C-1.34 21 -0.68 21 0 21 C0 14.07 0 7.14 0 0 Z " fill="#7364BC" transform="translate(220,186)"/>
<path d="M0 0 C0 0.66 0 1.32 0 2 C-0.99 2.33 -1.98 2.66 -3 3 C-2.67 3.66 -2.34 4.32 -2 5 C-3.98 5.33 -5.96 5.66 -8 6 C-8 5.67 -8 5.34 -8 5 C-10.97 4.505 -10.97 4.505 -14 4 C-14 3.67 -14 3.34 -14 3 C-12.02 3 -10.04 3 -8 3 C-8 2.34 -8 1.68 -8 1 C-2.25 0 -2.25 0 0 0 Z " fill="#4B39B1" transform="translate(152,125)"/>
<path d="M0 0 C1.65 0 3.3 0 5 0 C4.67 1.65 4.34 3.3 4 5 C3.34 5 2.68 5 2 5 C2 5.99 2 6.98 2 8 C2.66 8.33 3.32 8.66 4 9 C2.68 9 1.36 9 0 9 C0 6.03 0 3.06 0 0 Z " fill="#9086D7" transform="translate(163,226)"/>
<path d="M0 0 C0.66 0 1.32 0 2 0 C2.07654536 4.51617599 2.10228696 8.59085217 1 13 C-0.5625 11.3125 -0.5625 11.3125 -2 9 C-1.75 6.5 -1.75 6.5 -1 4 C-0.814375 3.236875 -0.62875 2.47375 -0.4375 1.6875 C-0.293125 1.130625 -0.14875 0.57375 0 0 Z " fill="#D7D5E2" transform="translate(53,202)"/>
<path d="M0 0 C0.66 0 1.32 0 2 0 C3.28317892 3.84953676 3.06643637 6.94738135 3 11 C2.01 10.34 1.02 9.68 0 9 C-0.29296875 6.8359375 -0.29296875 6.8359375 -0.1875 4.375 C-0.16042969 3.55773437 -0.13335937 2.74046875 -0.10546875 1.8984375 C-0.05326172 0.95871094 -0.05326172 0.95871094 0 0 Z " fill="#E7E7E8" transform="translate(41,187)"/>
<path d="M0 0 C0.33 0.99 0.66 1.98 1 3 C1.99 2.67 2.98 2.34 4 2 C4 3.98 4 5.96 4 8 C2.02 8.99 2.02 8.99 0 10 C0 6.7 0 3.4 0 0 Z " fill="#1D107F" transform="translate(204,103)"/>
<path d="M0 0 C1.65 0 3.3 0 5 0 C4.01 0.33 3.02 0.66 2 1 C2.185625 1.598125 2.37125 2.19625 2.5625 2.8125 C3 5 3 5 2 8 C2.99 8.33 3.98 8.66 5 9 C3.35 9 1.7 9 0 9 C0 6.03 0 3.06 0 0 Z " fill="#877CD2" transform="translate(127,226)"/>
<path d="M0 0 C-1.875 3.875 -1.875 3.875 -3 5 C-1.35 5.33 0.3 5.66 2 6 C2 6.33 2 6.66 2 7 C-0.97 7 -3.94 7 -7 7 C-3.5 0 -3.5 0 0 0 Z " fill="#5644B0" transform="translate(258,192)"/>
<path d="M0 0 C1.98 0 3.96 0 6 0 C6 0.99 6 1.98 6 3 C3.625 4.0625 3.625 4.0625 1 5 C0.34 4.67 -0.32 4.34 -1 4 C-0.67 2.68 -0.34 1.36 0 0 Z " fill="#ABA4D1" transform="translate(257,185)"/>
<path d="M0 0 C1.32 0 2.64 0 4 0 C4 1.98 4 3.96 4 6 C2.35 6 0.7 6 -1 6 C-0.67 4.02 -0.34 2.04 0 0 Z " fill="#2F189F" transform="translate(140,154)"/>
<path d="M0 0 C0.33 0 0.66 0 1 0 C1.42317708 2.01822917 1.84635417 4.03645833 2.26953125 6.0546875 C2.92308838 8.37046549 2.92308838 8.37046549 6 10 C2.62537285 9.45276317 0.91765 8.9451 -2 7 C-1.34 4.69 -0.68 2.38 0 0 Z " fill="#0B052D" transform="translate(100,143)"/>
<path d="M0 0 C1.32 0.33 2.64 0.66 4 1 C3.44855089 5.08072342 3.08669204 5.91330796 0 9 C0 6.03 0 3.06 0 0 Z " fill="#2513B2" transform="translate(212,90)"/>
<path d="M0 0 C1.32 0.66 2.64 1.32 4 2 C4 3.65 4 5.3 4 7 C3.01 7.495 3.01 7.495 2 8 C2 7.34 2 6.68 2 6 C1.01 5.67 0.02 5.34 -1 5 C-0.34 4.01 0.32 3.02 1 2 C0.34 1.67 -0.32 1.34 -1 1 C-0.67 0.67 -0.34 0.34 0 0 Z " fill="#351EA7" transform="translate(116,227)"/>
<path d="M0 0 C0.66 0 1.32 0 2 0 C2.33 3.63 2.66 7.26 3 11 C2.01 10.67 1.02 10.34 0 10 C0 6.7 0 3.4 0 0 Z " fill="#140F2F" transform="translate(135,152)"/>
<path d="M0 0 C1.65 0 3.3 0 5 0 C4.67 2.97 4.34 5.94 4 9 C3.34 9 2.68 9 2 9 C1.855625 7.88625 1.71125 6.7725 1.5625 5.625 C1.21627965 2.17857953 1.21627965 2.17857953 0 0 Z " fill="#7D71CD" transform="translate(196,226)"/>
<path d="M0 0 C0.66 0 1.32 0 2 0 C3.1577506 3.47325181 3.06866652 6.36067448 3 10 C2.34 10 1.68 10 1 10 C0.67 6.7 0.34 3.4 0 0 Z " fill="#E5E4E7" transform="translate(64,202)"/>
<path d="M0 0 C1.32 0 2.64 0 4 0 C4 0.66 4 1.32 4 2 C4.66 2 5.32 2 6 2 C5.34 3.32 4.68 4.64 4 6 C4 5.34 4 4.68 4 4 C2.68 4 1.36 4 0 4 C0 2.68 0 1.36 0 0 Z " fill="#8A898E" transform="translate(201,143)"/>
<path d="M0 0 C-0.33 1.32 -0.66 2.64 -1 4 C-2.98 4.33 -4.96 4.66 -7 5 C-6.1875 3.0625 -6.1875 3.0625 -5 1 C-2 0 -2 0 0 0 Z " fill="#240DA2" transform="translate(191,121)"/>
<path d="M0 0 C1.0625 1.8125 1.0625 1.8125 2 4 C1.67 4.99 1.34 5.98 1 7 C0.34 6.34 -0.32 5.68 -1 5 C-1.33 5.33 -1.66 5.66 -2 6 C-3.66617115 6.04063832 -5.33388095 6.042721 -7 6 C-6.401875 5.7525 -5.80375 5.505 -5.1875 5.25 C-2.71352479 3.83629988 -1.56629745 2.34944617 0 0 Z " fill="#342DD3" transform="translate(220,73)"/>
<path d="M0 0 C1.32 0 2.64 0 4 0 C4 2.97 4 5.94 4 9 C0.68987756 5.68987756 0.49648935 4.46840411 0 0 Z " fill="#6050BE" transform="translate(123,226)"/>
<path d="M0 0 C0.66 0 1.32 0 2 0 C2 2.64 2 5.28 2 8 C0.4375 6.8125 0.4375 6.8125 -1 5 C-0.6875 2.3125 -0.6875 2.3125 0 0 Z " fill="#8E84D6" transform="translate(176,226)"/>
<path d="M0 0 C1.65 0 3.3 0 5 0 C5 1.32 5 2.64 5 4 C3.35 3.67 1.7 3.34 0 3 C0 2.01 0 1.02 0 0 Z " fill="#888888" transform="translate(187,143)"/>
<path d="M0 0 C-0.66 1.32 -1.32 2.64 -2 4 C-3.65 4 -5.3 4 -7 4 C-3.375 0 -3.375 0 0 0 Z " fill="#250EA2" transform="translate(186,113)"/>
<path d="M0 0 C0.33 0 0.66 0 1 0 C0.67 2.31 0.34 4.62 0 7 C-0.99 6.67 -1.98 6.34 -3 6 C-3 4.35 -3 2.7 -3 1 C-2.34 1.66 -1.68 2.32 -1 3 C-0.67 2.01 -0.34 1.02 0 0 Z " fill="#8B80D4" transform="translate(123,228)"/>
<path d="M0 0 C-0.75 1.9375 -0.75 1.9375 -2 4 C-4 4.875 -4 4.875 -6 5 C-6.66 4.34 -7.32 3.68 -8 3 C-2.25 0 -2.25 0 0 0 Z " fill="#2009A1" transform="translate(178,128)"/>
</svg>
